<svg width="613" height="429" viewBox="0 0 613 429" fill="none" xmlns="http://www.w3.org/2000/svg">
<circle cx="419.01" cy="224.692" r="112.587" fill="#4238AF" fill-opacity="0.5"/>
<circle cx="254.772" cy="249.646" r="173.523" fill="#FF5C00" fill-opacity="0.5"/>
<circle cx="171.202" cy="401.697" r="27.2762" fill="#F5F7FF"/>
<circle cx="223.433" cy="148.667" r="14.5086" fill="#4238AF" fill-opacity="0.65"/>
<circle cx="524.052" cy="258.932" r="14.5086" fill="#F5F7FF"/>
<circle cx="505.159" cy="139.059" r="38.119" transform="rotate(-15 505.159 139.059)" fill="#F5F7FF"/>
<circle cx="419.59" cy="111.524" r="14.5086" fill="#F5F7FF"/>
<circle cx="564.096" cy="59.8734" r="9.28553" fill="#FF5C00" fill-opacity="0.65"/>
<circle cx="116.069" cy="134.158" r="24.3745" fill="#F5F7FF"/>
<circle cx="580.346" cy="401.117" r="24.3745" fill="#4238AF" fill-opacity="0.65"/>
<circle cx="135.801" cy="330.314" r="12.7676" fill="#FF5C00" fill-opacity="0.65"/>
<circle cx="110.266" cy="268.798" r="38.3028" fill="#F5F7FF"/>
<circle cx="607.622" cy="153.31" r="5.22311" fill="#4238AF" fill-opacity="0.65"/>
<circle cx="32.4995" cy="372.1" r="12.7676" fill="#4238AF" fill-opacity="0.65"/>
<circle cx="468.339" cy="220.63" r="9.86588" fill="white" fill-opacity="0.65"/>
<circle cx="434.679" cy="173.041" r="9.86588" fill="#FF5C00" fill-opacity="0.65"/>
<circle cx="19.7318" cy="230.495" r="19.7318" fill="#FF5C00" fill-opacity="0.65"/>
<circle cx="227.495" cy="35.4991" r="15.089" fill="#FF5C00" fill-opacity="0.65"/>
<path d="M101.66 122.698L84.8779 93.5337L55.7133 110.316L72.4953 139.48L101.66 122.698Z" stroke="#4238AF" stroke-width="3.15441"/>
<path d="M583.461 269.409L569.35 254.87L554.811 268.981L568.921 283.52L583.461 269.409Z" stroke="#FF5C00" stroke-width="3.15441"/>
<path d="M427.704 56.8909L375.402 3L321.511 55.3022L373.814 109.193L427.704 56.8909Z" stroke="#FF5C00" stroke-width="4.20589"/>
</svg>
