<svg width="40" height="40" viewBox="0 0 40 40" fill="none" xmlns="http://www.w3.org/2000/svg">
<path fill-rule="evenodd" clip-rule="evenodd" d="M8.33333 7.9165C7.18274 7.9165 6.25 8.84924 6.25 9.99984V33.3332C6.25 34.4838 7.18274 35.4165 8.33333 35.4165H31.6667C32.8173 35.4165 33.75 34.4838 33.75 33.3332V9.99984C33.75 8.84924 32.8173 7.9165 31.6667 7.9165H8.33333ZM3.75 9.99984C3.75 7.46853 5.80203 5.4165 8.33333 5.4165H31.6667C34.198 5.4165 36.25 7.46853 36.25 9.99984V33.3332C36.25 35.8645 34.198 37.9165 31.6667 37.9165H8.33333C5.80203 37.9165 3.75 35.8645 3.75 33.3332V9.99984Z" fill="#817BCB"/>
<path fill-rule="evenodd" clip-rule="evenodd" d="M26.6666 2.0835C27.357 2.0835 27.9166 2.64314 27.9166 3.3335V10.0002C27.9166 10.6905 27.357 11.2502 26.6666 11.2502C25.9763 11.2502 25.4166 10.6905 25.4166 10.0002V3.3335C25.4166 2.64314 25.9763 2.0835 26.6666 2.0835Z" fill="#817BCB"/>
<path fill-rule="evenodd" clip-rule="evenodd" d="M13.3334 2.0835C14.0237 2.0835 14.5834 2.64314 14.5834 3.3335V10.0002C14.5834 10.6905 14.0237 11.2502 13.3334 11.2502C12.643 11.2502 12.0834 10.6905 12.0834 10.0002V3.3335C12.0834 2.64314 12.643 2.0835 13.3334 2.0835Z" fill="#817BCB"/>
<path fill-rule="evenodd" clip-rule="evenodd" d="M3.75 16.6665C3.75 15.9761 4.30964 15.4165 5 15.4165H35C35.6904 15.4165 36.25 15.9761 36.25 16.6665C36.25 17.3569 35.6904 17.9165 35 17.9165H5C4.30964 17.9165 3.75 17.3569 3.75 16.6665Z" fill="#817BCB"/>
</svg>
