<svg width="40" height="40" viewBox="0 0 40 40" fill="none" xmlns="http://www.w3.org/2000/svg">
<path fill-rule="evenodd" clip-rule="evenodd" d="M20 4.5835C11.4856 4.5835 4.58331 11.4858 4.58331 20.0002C4.58331 28.5145 11.4856 35.4168 20 35.4168C28.5144 35.4168 35.4166 28.5145 35.4166 20.0002C35.4166 11.4858 28.5144 4.5835 20 4.5835ZM2.08331 20.0002C2.08331 10.1051 10.1049 2.0835 20 2.0835C29.8951 2.0835 37.9166 10.1051 37.9166 20.0002C37.9166 29.8953 29.8951 37.9168 20 37.9168C10.1049 37.9168 2.08331 29.8953 2.08331 20.0002Z" fill="#817BCB"/>
<path fill-rule="evenodd" clip-rule="evenodd" d="M20 8.75C20.6904 8.75 21.25 9.30964 21.25 10V19.2275L27.2257 22.2153C27.8432 22.524 28.0934 23.2749 27.7847 23.8924C27.476 24.5098 26.7251 24.7601 26.1076 24.4514L19.441 21.118C19.0175 20.9063 18.75 20.4735 18.75 20V10C18.75 9.30964 19.3096 8.75 20 8.75Z" fill="#817BCB"/>
</svg>
