<svg width="27" height="27" viewBox="0 0 27 27" fill="none" xmlns="http://www.w3.org/2000/svg">
<circle cx="13.5" cy="13.5" r="13.14" stroke="#817BCB" stroke-width="0.72"/>
<path fill-rule="evenodd" clip-rule="evenodd" d="M17.5303 9.53033C17.8232 9.82322 17.8232 10.2981 17.5303 10.591L10.4593 17.6621C10.1664 17.955 9.6915 17.955 9.3986 17.6621C9.10571 17.3692 9.10571 16.8943 9.3986 16.6014L16.4697 9.53033C16.7626 9.23744 17.2374 9.23744 17.5303 9.53033Z" fill="#817BCB"/>
<path fill-rule="evenodd" clip-rule="evenodd" d="M9.46967 9.53033C9.76256 9.23744 10.2374 9.23744 10.5303 9.53033L17.6014 16.6014C17.8943 16.8943 17.8943 17.3692 17.6014 17.6621C17.3085 17.955 16.8336 17.955 16.5407 17.6621L9.46967 10.591C9.17678 10.2981 9.17678 9.82322 9.46967 9.53033Z" fill="#817BCB"/>
</svg>
