<svg width="104" height="17" viewBox="0 0 104 17" fill="none" xmlns="http://www.w3.org/2000/svg">
<g clip-path="url(#clip0_557_646)">
<path d="M15.4676 3.92798V0H4.47163C4.00419 0 3.55901 0.210428 3.22512 0.56114L0.709849 3.1798C0.264667 3.64741 -0.00244141 4.27869 -0.00244141 4.95674V11.0825C-0.00244141 11.7606 0.242408 12.3918 0.709849 12.8595L3.22512 15.5015C3.55901 15.8522 4.02645 16.0393 4.49389 16.0393H15.4899V12.1347H3.73708V3.95136L15.4676 3.92798Z" fill="#262626"/>
<path d="M41.2891 3.92798V0H45.8967C46.3641 0 46.8316 0.187047 47.1655 0.56114L49.6807 3.20318C50.1259 3.67079 50.393 4.30208 50.393 4.98012V11.1059C50.393 11.7839 50.1482 12.4152 49.6807 12.8828L47.1655 15.5249C46.8316 15.8756 46.3641 16.0626 45.8967 16.0626H41.2891V12.1347H46.6312V3.95136L41.2891 3.92798Z" fill="#262626"/>
<path d="M32.2054 3.1798L29.6901 0.56114C29.3562 0.210428 28.8888 0 28.4213 0H22.1443C21.6768 0 21.2094 0.187047 20.8755 0.56114L18.3602 3.1798C17.9151 3.64741 17.6479 4.27869 17.6479 4.95674V11.0825C17.6479 11.7372 17.8928 12.3918 18.3602 12.8595L20.8755 15.5015C21.2094 15.8522 21.6768 16.0626 22.1443 16.0626H28.4213C28.8888 16.0626 29.3562 15.8522 29.6901 15.5015L32.2054 12.8595C32.6506 12.3918 32.9177 11.7606 32.9177 11.0825V4.95674C32.9177 4.30208 32.6506 3.67079 32.2054 3.1798ZM29.1781 12.1347H21.4097V3.95136H29.1781V12.1347Z" fill="#262626"/>
<path d="M38.7961 0H35.2124V16.0626H38.7961V0Z" fill="#262626"/>
<path d="M60.3659 9.98356L64.239 3.92792H56.4483V12.1112H68.023V16.0626H57.1829C56.7154 16.0626 56.248 15.8522 55.9141 15.5014L53.3988 12.8594C52.9536 12.3918 52.6865 11.7605 52.6865 11.0825V4.95668C52.6865 4.27864 52.9314 3.64735 53.3988 3.17974L55.9141 0.537703C56.248 0.18699 56.7154 -0.0234375 57.1829 -0.0234375H68.023V3.90454L64.1722 9.96018H60.3659V9.98356Z" fill="#262626"/>
<path d="M82.5797 0.724806L85.184 3.43698C85.4733 3.74094 85.6291 4.13841 85.6291 4.55926V7.2013C85.6291 7.62216 85.4733 8.01963 85.184 8.3002L81.7783 11.9242L85.6069 16.0626H81.7783L77.9498 11.9242V8.1833H81.8896V3.74094H73.9209V16.0626H70.2036V0H80.8657C81.5112 0 82.1345 0.257189 82.5797 0.724806Z" fill="#262626"/>
<path d="M103.257 8.01963L91.6157 5.09702V3.92798H103.257V0H92.5951C91.9496 0 91.3486 0.257189 90.9034 0.748187L87.7871 4.02151V8.04301L99.4063 10.989V12.158H87.7871V16.0626H98.3824C99.0057 16.0626 99.6067 15.8055 100.052 15.3612L103.257 12.1113V8.01963Z" fill="#262626"/>
</g>
<defs>
<clipPath id="clip0_557_646">
<rect width="103.26" height="16.0626" fill="white"/>
</clipPath>
</defs>
</svg>
