<svg width="40" height="40" viewBox="0 0 40 40" fill="none" xmlns="http://www.w3.org/2000/svg">
<path fill-rule="evenodd" clip-rule="evenodd" d="M20 0.416504C20.6904 0.416504 21.25 0.976148 21.25 1.6665V38.3332C21.25 39.0235 20.6904 39.5832 20 39.5832C19.3096 39.5832 18.75 39.0235 18.75 38.3332V1.6665C18.75 0.976148 19.3096 0.416504 20 0.416504Z" fill="#817BCB"/>
<path fill-rule="evenodd" clip-rule="evenodd" d="M10.8247 9.15816C12.153 7.82977 13.9547 7.0835 15.8333 7.0835H28.3333C29.0237 7.0835 29.5833 7.64314 29.5833 8.3335C29.5833 9.02385 29.0237 9.5835 28.3333 9.5835H15.8333C14.6178 9.5835 13.452 10.0664 12.5924 10.9259C11.7329 11.7855 11.25 12.9513 11.25 14.1668C11.25 15.3824 11.7329 16.5482 12.5924 17.4077C13.452 18.2673 14.6178 18.7502 15.8333 18.7502H24.1667C26.0453 18.7502 27.847 19.4964 29.1753 20.8248C30.5037 22.1532 31.25 23.9549 31.25 25.8335C31.25 27.7121 30.5037 29.5138 29.1753 30.8422C27.847 32.1706 26.0453 32.9168 24.1667 32.9168H10C9.30964 32.9168 8.75 32.3572 8.75 31.6668C8.75 30.9765 9.30964 30.4168 10 30.4168H24.1667C25.3822 30.4168 26.548 29.9339 27.4076 29.0744C28.2671 28.2149 28.75 27.0491 28.75 25.8335C28.75 24.6179 28.2671 23.4521 27.4076 22.5926C26.548 21.733 25.3822 21.2502 24.1667 21.2502H15.8333C13.9547 21.2502 12.153 20.5039 10.8247 19.1755C9.49628 17.8471 8.75 16.0454 8.75 14.1668C8.75 12.2882 9.49628 10.4865 10.8247 9.15816Z" fill="#817BCB"/>
</svg>
