<svg width="429" height="405" viewBox="0 0 429 405" fill="none" xmlns="http://www.w3.org/2000/svg">
<g clip-path="url(#clip0_18_2268)">
<path d="M414.839 199.886C410.391 237.829 393.053 281.946 358.468 302.189C306.182 332.78 310.539 379.891 208.509 400.406C192.623 403.584 177.464 404.945 163.303 404.673C155.678 404.491 148.235 403.947 141.063 402.857C76.1597 393.417 32.5879 348.393 16.5209 293.928C-4.53881 222.398 37.4898 175.467 65.4483 147.237C93.316 119.006 113.74 31.0453 213.955 10.0764C229.205 6.89932 244.819 5.26538 260.432 5.62847C296.106 6.53622 334.958 18.2461 361.827 42.6644C363.824 44.4799 365.821 46.3862 367.727 48.3832C405.126 86.7808 421.012 148.144 414.839 199.886Z" fill="#D4DFFF"/>
<path opacity="0.7" d="M414.839 199.886C410.391 237.829 393.053 281.946 358.468 302.189C306.182 332.78 310.539 379.891 208.509 400.406C192.623 403.584 177.464 404.945 163.303 404.673C155.678 404.491 148.235 403.947 141.063 402.857C76.1597 393.417 32.5879 348.393 16.5209 293.928C-4.53881 222.398 37.4898 175.467 65.4483 147.237C93.316 119.006 113.74 31.0453 213.955 10.0764C229.205 6.89932 244.819 5.26538 260.432 5.62847C296.106 6.53622 334.958 18.2461 361.827 42.6644C363.824 44.4799 365.821 46.3862 367.727 48.3832C405.126 86.7808 421.012 148.144 414.839 199.886Z" fill="white"/>
<path d="M408.303 240.462H422.101" stroke="#263238" stroke-width="0.907744" stroke-miterlimit="10" stroke-linecap="round" stroke-linejoin="round"/>
<path d="M7.80664 240.462H402.131" stroke="#263238" stroke-width="0.907744" stroke-miterlimit="10" stroke-linecap="round" stroke-linejoin="round"/>
<path d="M387.153 134.165V127.084L380.345 126.086C379.71 122.636 378.348 119.368 376.442 116.554L380.617 111.017L375.625 106.024L370.088 110.109C367.274 108.203 364.096 106.751 360.556 106.115L359.558 99.3071H352.477L351.479 106.115C348.029 106.751 344.761 108.112 341.947 110.019L336.41 105.843L331.418 110.835L335.502 116.373C333.596 119.187 332.144 122.364 331.508 125.904L324.7 126.903V133.983L331.508 134.981C332.144 138.431 333.505 141.699 335.412 144.513L331.236 150.05L336.229 155.043L341.766 150.958C344.58 152.864 347.757 154.316 351.297 154.952L352.296 161.76H359.376L360.375 154.952C363.824 154.316 367.092 152.955 369.906 151.049L375.443 155.224L380.436 150.232L376.351 144.694C378.257 141.88 379.71 138.703 380.345 135.163L387.153 134.165ZM355.927 147.69C346.395 147.69 338.68 139.974 338.68 130.443C338.68 120.911 346.395 113.196 355.927 113.196C365.458 113.196 373.174 120.911 373.174 130.443C373.174 139.974 365.458 147.69 355.927 147.69Z" stroke="#263238" stroke-width="0.907744" stroke-miterlimit="10"/>
<path d="M406.851 176.556V171.473L401.949 170.747C401.495 168.296 400.497 165.936 399.135 163.939L402.131 160.035L398.5 156.404L394.597 159.309C392.6 157.947 390.33 156.949 387.789 156.495L387.062 151.593H381.979L381.253 156.495C378.802 156.949 376.442 157.947 374.445 159.309L370.541 156.314L366.91 159.945L369.815 163.848C368.454 165.845 367.455 168.114 367.001 170.656L362.099 171.382V176.465L367.001 177.192C367.455 179.643 368.454 182.003 369.815 184L366.82 187.903L370.451 191.534L374.354 188.629C376.351 189.991 378.62 190.989 381.162 191.443L381.888 196.345H386.972L387.698 191.443C390.149 190.989 392.509 189.991 394.506 188.629L398.409 191.625L402.04 187.994L399.135 184.091C400.497 182.093 401.495 179.824 401.949 177.282L406.851 176.556ZM384.521 186.269C377.713 186.269 372.175 180.732 372.175 173.924C372.175 167.116 377.713 161.578 384.521 161.578C391.329 161.578 396.866 167.116 396.866 173.924C396.866 180.732 391.329 186.269 384.521 186.269Z" stroke="#263238" stroke-width="0.907744" stroke-miterlimit="10"/>
<path d="M47.6567 173.016V179.461L53.8294 180.369C54.374 183.546 55.6449 186.451 57.3696 189.083L53.5571 194.076L58.1866 198.705L63.1792 194.984C65.7208 196.708 68.7164 197.979 71.8027 198.615L72.7105 204.878H79.1555L80.0632 198.705C83.2403 198.161 86.1451 196.89 88.7776 195.165L93.7702 198.978L98.3996 194.348L94.6779 189.356C96.4026 186.814 97.6735 183.818 98.3089 180.732L104.572 179.824V173.379L98.3996 172.471C97.855 169.294 96.5842 166.39 94.8594 163.757L98.672 158.765L94.0425 154.135L89.0499 157.857C86.5082 156.132 83.5126 154.861 80.4263 154.226L79.5186 147.962H73.0736L72.1658 154.135C68.9887 154.68 66.084 155.951 63.4515 157.675L58.4589 153.863L53.8294 158.492L57.5512 163.485C55.8264 166.027 54.5556 169.022 53.9202 172.108L47.6567 173.016ZM76.1599 160.58C84.8743 160.58 91.8639 167.66 91.8639 176.284C91.8639 184.998 84.7835 191.988 76.1599 191.988C67.5363 191.988 60.4559 184.908 60.4559 176.284C60.4559 167.66 67.4456 160.58 76.1599 160.58Z" stroke="#263238" stroke-width="0.907744" stroke-miterlimit="10"/>
<path d="M31.6804 137.705V141.699L35.4929 142.243C35.856 144.15 36.5822 145.965 37.6715 147.508L35.4022 150.595L38.1254 153.409L41.2117 151.139C42.7549 152.229 44.5704 152.955 46.4767 153.318L47.0213 157.13H51.0154L51.56 153.318C53.4663 152.955 55.2818 152.229 56.8249 151.139L59.9113 153.409L62.6345 150.685L60.3651 147.599C61.4544 146.056 62.1806 144.24 62.5437 142.334L66.3563 141.789V137.795L62.5437 137.251C62.1806 135.345 61.4544 133.529 60.3651 131.986L62.6345 128.9L59.8205 126.086L56.7342 128.355C55.191 127.266 53.3755 126.539 51.4692 126.176L50.9246 122.364H46.9305L46.3859 126.176C44.4796 126.539 42.6641 127.266 41.121 128.355L38.0346 126.086L35.2206 128.9L37.49 131.986C36.4007 133.529 35.6745 135.345 35.3114 137.251L31.6804 137.705ZM49.0183 130.17C54.2833 130.17 58.6404 134.437 58.6404 139.792C58.6404 145.148 54.374 149.415 49.0183 149.415C43.7534 149.415 39.3962 145.148 39.3962 139.792C39.3962 134.437 43.7534 130.17 49.0183 130.17Z" stroke="#263238" stroke-width="0.907744" stroke-miterlimit="10"/>
<path d="M184 65.5392V70.9856L189.174 71.7118C189.628 74.3443 190.717 76.7952 192.17 78.9738L188.992 83.1494L192.805 86.9619L196.981 83.7848C199.159 85.2372 201.61 86.3265 204.243 86.7804L204.969 92.0453H210.415L211.141 86.8712C213.774 86.4173 216.225 85.328 218.403 83.8756L222.579 87.0527L226.392 83.2402L223.214 79.0646C224.667 76.886 225.756 74.4351 226.21 71.8026L231.475 71.0764V65.6299L226.301 64.9037C225.847 62.2713 224.758 59.8204 223.305 57.6418L226.482 53.4662L222.67 49.6536L218.494 52.8307C216.316 51.3784 213.865 50.2891 211.232 49.8352L210.597 44.4795H205.15L204.424 49.6536C201.792 50.1075 199.341 51.1968 197.162 52.6492L192.987 49.4721L189.174 53.2846L192.351 57.4602C190.899 59.6388 189.809 62.0897 189.356 64.7222L184 65.5392ZM207.874 55.1909C215.136 55.1909 221.036 61.0912 221.036 68.3532C221.036 75.6151 215.136 81.5155 207.874 81.5155C200.612 81.5155 194.711 75.6151 194.711 68.3532C194.711 61.0912 200.612 55.1909 207.874 55.1909Z" stroke="#263238" stroke-width="0.907744" stroke-miterlimit="10"/>
<path d="M348.574 246.271H84.4202V72.529C84.4202 68.535 87.688 65.2671 91.6821 65.2671H341.312C345.306 65.2671 348.574 68.535 348.574 72.529V246.271Z" fill="#263238" stroke="#263238" stroke-width="0.907744" stroke-miterlimit="10" stroke-linecap="round" stroke-linejoin="round"/>
<path d="M388.152 326.335H44.752L84.4204 246.271H348.574L388.152 326.335Z" fill="white" stroke="#263238" stroke-width="0.907744" stroke-miterlimit="10" stroke-linecap="round" stroke-linejoin="round"/>
<path d="M332.597 79.6094H100.396V231.929H332.597V79.6094Z" fill="#D4DFFF" stroke="#263238" stroke-width="0.907744" stroke-miterlimit="10" stroke-linecap="round" stroke-linejoin="round"/>
<path d="M205.423 271.598L205.877 261.885H191.988L190.99 271.598H205.423Z" fill="#263238" stroke="white" stroke-width="0.907744" stroke-miterlimit="10" stroke-linecap="round" stroke-linejoin="round"/>
<path d="M234.289 271.598L233.835 261.885H219.856V271.598H234.289Z" fill="#263238" stroke="white" stroke-width="0.907744" stroke-miterlimit="10" stroke-linecap="round" stroke-linejoin="round"/>
<path d="M309.45 282.037H324.337L320.888 271.598H306.454L309.45 282.037Z" fill="#263238" stroke="white" stroke-width="0.907744" stroke-miterlimit="10" stroke-linecap="round" stroke-linejoin="round"/>
<path d="M190.989 271.598L191.988 261.885H178.009L176.556 271.598H190.989Z" fill="#263238" stroke="white" stroke-width="0.907744" stroke-miterlimit="10" stroke-linecap="round" stroke-linejoin="round"/>
<path d="M162.214 271.598L164.029 261.885H150.05L147.781 271.598H162.214Z" fill="#263238" stroke="white" stroke-width="0.907744" stroke-miterlimit="10" stroke-linecap="round" stroke-linejoin="round"/>
<path d="M292.021 271.598L289.661 261.885H275.682L277.588 271.598H292.021Z" fill="#263238" stroke="white" stroke-width="0.907744" stroke-miterlimit="10" stroke-linecap="round" stroke-linejoin="round"/>
<path d="M306.455 271.598L303.641 261.885H289.661L292.021 271.598H306.455Z" fill="#263238" stroke="white" stroke-width="0.907744" stroke-miterlimit="10" stroke-linecap="round" stroke-linejoin="round"/>
<path d="M147.781 271.598L150.05 261.885H136.071L133.348 271.598H147.781Z" fill="#263238" stroke="white" stroke-width="0.907744" stroke-miterlimit="10" stroke-linecap="round" stroke-linejoin="round"/>
<path d="M248.722 271.598L247.814 261.885H233.835L234.289 271.598H248.722Z" fill="#263238" stroke="white" stroke-width="0.907744" stroke-miterlimit="10" stroke-linecap="round" stroke-linejoin="round"/>
<path d="M320.888 271.598L317.62 261.885H303.641L306.455 271.598H320.888Z" fill="#263238" stroke="white" stroke-width="0.907744" stroke-miterlimit="10" stroke-linecap="round" stroke-linejoin="round"/>
<path d="M277.588 271.598L275.682 261.885H261.703L263.155 271.598H277.588Z" fill="#263238" stroke="white" stroke-width="0.907744" stroke-miterlimit="10" stroke-linecap="round" stroke-linejoin="round"/>
<path d="M263.155 271.598L261.703 261.885H247.814L248.722 271.598H263.155Z" fill="#263238" stroke="white" stroke-width="0.907744" stroke-miterlimit="10" stroke-linecap="round" stroke-linejoin="round"/>
<path d="M219.856 271.598V261.885H205.876L205.423 271.598H219.856Z" fill="#263238" stroke="white" stroke-width="0.907744" stroke-miterlimit="10" stroke-linecap="round" stroke-linejoin="round"/>
<path d="M118.915 271.598H104.481L100.487 282.037H115.374L118.915 271.598Z" fill="#263238" stroke="white" stroke-width="0.907744" stroke-miterlimit="10" stroke-linecap="round" stroke-linejoin="round"/>
<path d="M122.182 261.885H108.203L104.481 271.598H118.914L122.182 261.885Z" fill="#263238" stroke="white" stroke-width="0.907744" stroke-miterlimit="10" stroke-linecap="round" stroke-linejoin="round"/>
<path d="M133.348 271.598L136.071 261.885H122.182L118.915 271.598H133.348Z" fill="#263238" stroke="white" stroke-width="0.907744" stroke-miterlimit="10" stroke-linecap="round" stroke-linejoin="round"/>
<path d="M96.2209 293.202L91.5914 305.275H107.659L111.653 293.202H96.2209Z" fill="#263238" stroke="white" stroke-width="0.907744" stroke-miterlimit="10" stroke-linecap="round" stroke-linejoin="round"/>
<path d="M115.374 282.037H100.487L96.2209 293.202H111.653L115.374 282.037Z" fill="#263238" stroke="white" stroke-width="0.907744" stroke-miterlimit="10" stroke-linecap="round" stroke-linejoin="round"/>
<path d="M111.653 293.202L107.658 305.275H123.726L127.175 293.202H111.653Z" fill="#263238" stroke="white" stroke-width="0.907744" stroke-miterlimit="10" stroke-linecap="round" stroke-linejoin="round"/>
<path d="M176.556 271.598L178.009 261.885H164.029L162.214 271.598H176.556Z" fill="#263238" stroke="white" stroke-width="0.907744" stroke-miterlimit="10" stroke-linecap="round" stroke-linejoin="round"/>
<path d="M175.104 282.037L176.556 271.598H162.214L160.217 282.037H175.104Z" fill="#263238" stroke="white" stroke-width="0.907744" stroke-miterlimit="10" stroke-linecap="round" stroke-linejoin="round"/>
<path d="M160.217 282.037L162.214 271.598H147.781L145.239 282.037H160.217Z" fill="#263238" stroke="white" stroke-width="0.907744" stroke-miterlimit="10" stroke-linecap="round" stroke-linejoin="round"/>
<path d="M190.082 282.037L190.989 271.598H176.556L175.104 282.037H190.082Z" fill="#263238" stroke="white" stroke-width="0.907744" stroke-miterlimit="10" stroke-linecap="round" stroke-linejoin="round"/>
<path d="M133.348 271.598H118.914L115.374 282.037H130.352L133.348 271.598Z" fill="#263238" stroke="white" stroke-width="0.907744" stroke-miterlimit="10" stroke-linecap="round" stroke-linejoin="round"/>
<path d="M312.627 293.202H328.149L324.337 282.037H309.45L312.627 293.202Z" fill="#263238" stroke="white" stroke-width="0.907744" stroke-miterlimit="10" stroke-linecap="round" stroke-linejoin="round"/>
<path d="M145.239 282.037L147.781 271.598H133.348L130.352 282.037H145.239Z" fill="#263238" stroke="white" stroke-width="0.907744" stroke-miterlimit="10" stroke-linecap="round" stroke-linejoin="round"/>
<path d="M115.374 282.037L111.653 293.202H127.175L130.352 282.037H115.374Z" fill="#263238" stroke="white" stroke-width="0.907744" stroke-miterlimit="10" stroke-linecap="round" stroke-linejoin="round"/>
<path d="M279.585 282.037L277.588 271.598H263.155L264.698 282.037H279.585Z" fill="#263238" stroke="white" stroke-width="0.907744" stroke-miterlimit="10" stroke-linecap="round" stroke-linejoin="round"/>
<path d="M264.698 282.037L263.155 271.598H248.722L249.72 282.037H264.698Z" fill="#263238" stroke="white" stroke-width="0.907744" stroke-miterlimit="10" stroke-linecap="round" stroke-linejoin="round"/>
<path d="M309.45 282.037L306.454 271.598H292.021L294.472 282.037H309.45Z" fill="#263238" stroke="white" stroke-width="0.907744" stroke-miterlimit="10" stroke-linecap="round" stroke-linejoin="round"/>
<path d="M219.856 282.037V271.598H205.423L204.969 282.037H219.856Z" fill="#263238" stroke="white" stroke-width="0.907744" stroke-miterlimit="10" stroke-linecap="round" stroke-linejoin="round"/>
<path d="M249.72 282.037L248.722 271.598H234.289L234.833 282.037H249.72Z" fill="#263238" stroke="white" stroke-width="0.907744" stroke-miterlimit="10" stroke-linecap="round" stroke-linejoin="round"/>
<path d="M234.834 282.037L234.289 271.598H219.856V282.037H234.834Z" fill="#263238" stroke="white" stroke-width="0.907744" stroke-miterlimit="10" stroke-linecap="round" stroke-linejoin="round"/>
<path d="M204.969 282.037L205.423 271.598H190.989L190.082 282.037H204.969Z" fill="#263238" stroke="white" stroke-width="0.907744" stroke-miterlimit="10" stroke-linecap="round" stroke-linejoin="round"/>
<path d="M249.72 282.037L250.81 293.202H266.241L264.698 282.037H249.72Z" fill="#263238" stroke="white" stroke-width="0.907744" stroke-miterlimit="10" stroke-linecap="round" stroke-linejoin="round"/>
<path d="M264.698 282.037L266.241 293.202H281.764L279.585 282.037H264.698Z" fill="#263238" stroke="white" stroke-width="0.907744" stroke-miterlimit="10" stroke-linecap="round" stroke-linejoin="round"/>
<path d="M130.352 282.037L127.175 293.202H142.607L145.239 282.037H130.352Z" fill="#263238" stroke="white" stroke-width="0.907744" stroke-miterlimit="10" stroke-linecap="round" stroke-linejoin="round"/>
<path d="M279.585 282.037L281.764 293.202H297.195L294.472 282.037H279.585Z" fill="#263238" stroke="white" stroke-width="0.907744" stroke-miterlimit="10" stroke-linecap="round" stroke-linejoin="round"/>
<path d="M219.856 282.037V293.202H235.378L234.834 282.037H219.856Z" fill="#263238" stroke="white" stroke-width="0.907744" stroke-miterlimit="10" stroke-linecap="round" stroke-linejoin="round"/>
<path d="M294.472 282.037L297.195 293.202H312.627L309.45 282.037H294.472Z" fill="#263238" stroke="white" stroke-width="0.907744" stroke-miterlimit="10" stroke-linecap="round" stroke-linejoin="round"/>
<path d="M234.833 282.037L235.378 293.202H250.81L249.72 282.037H234.833Z" fill="#263238" stroke="white" stroke-width="0.907744" stroke-miterlimit="10" stroke-linecap="round" stroke-linejoin="round"/>
<path d="M160.217 282.037L158.038 293.202H173.561L175.104 282.037H160.217Z" fill="#263238" stroke="white" stroke-width="0.907744" stroke-miterlimit="10" stroke-linecap="round" stroke-linejoin="round"/>
<path d="M145.239 282.037L142.607 293.202H158.038L160.217 282.037H145.239Z" fill="#263238" stroke="white" stroke-width="0.907744" stroke-miterlimit="10" stroke-linecap="round" stroke-linejoin="round"/>
<path d="M204.969 282.037L204.424 293.202H219.856V282.037H204.969Z" fill="#263238" stroke="white" stroke-width="0.907744" stroke-miterlimit="10" stroke-linecap="round" stroke-linejoin="round"/>
<path d="M190.082 282.037L188.992 293.202H204.424L204.969 282.037H190.082Z" fill="#263238" stroke="white" stroke-width="0.907744" stroke-miterlimit="10" stroke-linecap="round" stroke-linejoin="round"/>
<path d="M175.104 282.037L173.561 293.202H188.992L190.082 282.037H175.104Z" fill="#263238" stroke="white" stroke-width="0.907744" stroke-miterlimit="10" stroke-linecap="round" stroke-linejoin="round"/>
<path d="M294.472 282.037L292.021 271.598H277.588L279.585 282.037H294.472Z" fill="#263238" stroke="white" stroke-width="0.907744" stroke-miterlimit="10" stroke-linecap="round" stroke-linejoin="round"/>
<path d="M122.182 261.885L125.45 251.899H112.016L108.203 261.885H122.182Z" fill="#263238" stroke="white" stroke-width="0.907744" stroke-miterlimit="10" stroke-linecap="round" stroke-linejoin="round"/>
<path d="M108.203 261.885H95.3132L91.1376 271.598H104.481L108.203 261.885Z" fill="#263238" stroke="white" stroke-width="0.907744" stroke-miterlimit="10" stroke-linecap="round" stroke-linejoin="round"/>
<path d="M112.016 251.899H99.5795L95.3131 261.885H108.203L112.016 251.899Z" fill="#263238" stroke="white" stroke-width="0.907744" stroke-miterlimit="10" stroke-linecap="round" stroke-linejoin="round"/>
<path d="M104.481 271.598H91.1375L86.6896 282.037H100.487L104.481 271.598Z" fill="#263238" stroke="white" stroke-width="0.907744" stroke-miterlimit="10" stroke-linecap="round" stroke-linejoin="round"/>
<path d="M100.487 282.037H86.6895L81.9692 293.202H96.2208L100.487 282.037Z" fill="#263238" stroke="white" stroke-width="0.907744" stroke-miterlimit="10" stroke-linecap="round" stroke-linejoin="round"/>
<path d="M96.2209 293.202H81.9693L76.7952 305.275H91.5914L96.2209 293.202Z" fill="#263238" stroke="white" stroke-width="0.907744" stroke-miterlimit="10" stroke-linecap="round" stroke-linejoin="round"/>
<path d="M335.321 271.598L339.315 282.037H352.477L348.029 271.598H335.321Z" fill="#263238" stroke="white" stroke-width="0.907744" stroke-miterlimit="10" stroke-linecap="round" stroke-linejoin="round"/>
<path d="M343.581 293.202H357.288L352.477 282.037H339.315L343.581 293.202Z" fill="#263238" stroke="white" stroke-width="0.907744" stroke-miterlimit="10" stroke-linecap="round" stroke-linejoin="round"/>
<path d="M348.211 305.275H362.372L357.288 293.202H343.581L348.211 305.275Z" fill="#263238" stroke="white" stroke-width="0.907744" stroke-miterlimit="10" stroke-linecap="round" stroke-linejoin="round"/>
<path d="M233.835 261.885L233.381 251.899H219.856V261.885H233.835Z" fill="#263238" stroke="white" stroke-width="0.907744" stroke-miterlimit="10" stroke-linecap="round" stroke-linejoin="round"/>
<path d="M335.321 271.598H348.029L343.853 261.885H331.508L335.321 271.598Z" fill="#263238" stroke="white" stroke-width="0.907744" stroke-miterlimit="10" stroke-linecap="round" stroke-linejoin="round"/>
<path d="M328.15 293.202H343.581L339.315 282.037H324.337L328.15 293.202Z" fill="#263238" stroke="white" stroke-width="0.907744" stroke-miterlimit="10" stroke-linecap="round" stroke-linejoin="round"/>
<path d="M136.071 261.885L138.976 251.899H125.45L122.182 261.885H136.071Z" fill="#263238" stroke="white" stroke-width="0.907744" stroke-miterlimit="10" stroke-linecap="round" stroke-linejoin="round"/>
<path d="M317.62 261.885L320.888 271.598H335.321L331.508 261.885H317.62Z" fill="#263238" stroke="white" stroke-width="0.907744" stroke-miterlimit="10" stroke-linecap="round" stroke-linejoin="round"/>
<path d="M343.854 261.885L339.678 251.899H327.696L331.508 261.885H343.854Z" fill="#263238" stroke="white" stroke-width="0.907744" stroke-miterlimit="10" stroke-linecap="round" stroke-linejoin="round"/>
<path d="M331.508 261.885L327.696 251.899H314.261L317.62 261.885H331.508Z" fill="#263238" stroke="white" stroke-width="0.907744" stroke-miterlimit="10" stroke-linecap="round" stroke-linejoin="round"/>
<path d="M281.764 293.202L284.033 305.275H300.1L297.195 293.202H281.764Z" fill="#263238" stroke="white" stroke-width="0.907744" stroke-miterlimit="10" stroke-linecap="round" stroke-linejoin="round"/>
<path d="M332.144 305.275H348.211L343.581 293.202H328.15L332.144 305.275Z" fill="#263238" stroke="white" stroke-width="0.907744" stroke-miterlimit="10" stroke-linecap="round" stroke-linejoin="round"/>
<path d="M317.62 261.885L314.261 251.899H300.736L303.64 261.885H317.62Z" fill="#263238" stroke="white" stroke-width="0.907744" stroke-miterlimit="10" stroke-linecap="round" stroke-linejoin="round"/>
<path d="M312.627 293.202L316.077 305.275H332.144L328.15 293.202H312.627Z" fill="#263238" stroke="white" stroke-width="0.907744" stroke-miterlimit="10" stroke-linecap="round" stroke-linejoin="round"/>
<path d="M297.195 293.202L300.1 305.275H316.077L312.627 293.202H297.195Z" fill="#263238" stroke="white" stroke-width="0.907744" stroke-miterlimit="10" stroke-linecap="round" stroke-linejoin="round"/>
<path d="M324.337 282.037H339.315L335.321 271.598H320.888L324.337 282.037Z" fill="#263238" stroke="white" stroke-width="0.907744" stroke-miterlimit="10" stroke-linecap="round" stroke-linejoin="round"/>
<path d="M191.988 261.885L192.896 251.899H179.37L178.009 261.885H191.988Z" fill="#263238" stroke="white" stroke-width="0.907744" stroke-miterlimit="10" stroke-linecap="round" stroke-linejoin="round"/>
<path d="M303.641 261.885L300.736 251.899H287.301L289.661 261.885H303.641Z" fill="#263238" stroke="white" stroke-width="0.907744" stroke-miterlimit="10" stroke-linecap="round" stroke-linejoin="round"/>
<path d="M178.009 261.885L179.37 251.899H165.936L164.029 261.885H178.009Z" fill="#263238" stroke="white" stroke-width="0.907744" stroke-miterlimit="10" stroke-linecap="round" stroke-linejoin="round"/>
<path d="M219.856 261.885V251.899H206.421L205.876 261.885H219.856Z" fill="#263238" stroke="white" stroke-width="0.907744" stroke-miterlimit="10" stroke-linecap="round" stroke-linejoin="round"/>
<path d="M164.029 261.885L165.936 251.899H152.41L150.05 261.885H164.029Z" fill="#263238" stroke="white" stroke-width="0.907744" stroke-miterlimit="10" stroke-linecap="round" stroke-linejoin="round"/>
<path d="M150.05 261.885L152.41 251.899H138.976L136.071 261.885H150.05Z" fill="#263238" stroke="white" stroke-width="0.907744" stroke-miterlimit="10" stroke-linecap="round" stroke-linejoin="round"/>
<path d="M205.876 261.885L206.421 251.899H192.896L191.988 261.885H205.876Z" fill="#263238" stroke="white" stroke-width="0.907744" stroke-miterlimit="10" stroke-linecap="round" stroke-linejoin="round"/>
<path d="M289.661 261.885L287.301 251.899H273.776L275.682 261.885H289.661Z" fill="#263238" stroke="white" stroke-width="0.907744" stroke-miterlimit="10" stroke-linecap="round" stroke-linejoin="round"/>
<path d="M275.682 261.885L273.776 251.899H260.341L261.703 261.885H275.682Z" fill="#263238" stroke="white" stroke-width="0.907744" stroke-miterlimit="10" stroke-linecap="round" stroke-linejoin="round"/>
<path d="M247.814 261.885L246.816 251.899H233.381L233.835 261.885H247.814Z" fill="#263238" stroke="white" stroke-width="0.907744" stroke-miterlimit="10" stroke-linecap="round" stroke-linejoin="round"/>
<path d="M281.764 293.202H266.241H250.81H235.378H219.856H204.424H188.992H173.561H158.038H142.607H127.175L123.725 305.275H139.702H155.769H171.836H187.812H203.879H219.946H235.923H251.99H268.057H284.033L281.764 293.202Z" fill="#263238" stroke="white" stroke-width="0.907744" stroke-miterlimit="10" stroke-linecap="round" stroke-linejoin="round"/>
<path d="M261.703 261.885L260.341 251.899H246.816L247.814 261.885H261.703Z" fill="#263238" stroke="white" stroke-width="0.907744" stroke-miterlimit="10" stroke-linecap="round" stroke-linejoin="round"/>
<path d="M388.333 326.334H44.752V331.236H388.333V326.334Z" fill="#263238" stroke="#263238" stroke-width="0.907744" stroke-miterlimit="10" stroke-linecap="round" stroke-linejoin="round"/>
<path d="M115.374 91.5913H130.352" stroke="#263238" stroke-width="2.72323" stroke-miterlimit="10" stroke-linecap="round" stroke-linejoin="round"/>
<path d="M115.374 99.3071H171.564" stroke="white" stroke-width="2.72323" stroke-miterlimit="10" stroke-linecap="round" stroke-linejoin="round"/>
<path d="M202.336 99.3071H258.526" stroke="white" stroke-width="2.72323" stroke-miterlimit="10" stroke-linecap="round" stroke-linejoin="round"/>
<path d="M175.195 99.3071H197.434" stroke="#263238" stroke-width="2.72323" stroke-miterlimit="10" stroke-linecap="round" stroke-linejoin="round"/>
<path d="M115.374 107.023H147.69" stroke="#263238" stroke-width="2.72323" stroke-miterlimit="10" stroke-linecap="round" stroke-linejoin="round"/>
<path d="M151.775 107.023H184.09" stroke="#263238" stroke-width="2.72323" stroke-miterlimit="10" stroke-linecap="round" stroke-linejoin="round"/>
<path d="M188.175 107.023H220.491" stroke="#263238" stroke-width="2.72323" stroke-miterlimit="10" stroke-linecap="round" stroke-linejoin="round"/>
<path d="M224.576 107.023H238.374" stroke="#263238" stroke-width="2.72323" stroke-miterlimit="10" stroke-linecap="round" stroke-linejoin="round"/>
<path d="M134.346 91.5913H149.324" stroke="#263238" stroke-width="2.72323" stroke-miterlimit="10" stroke-linecap="round" stroke-linejoin="round"/>
<path d="M223.396 91.5913H238.374" stroke="#263238" stroke-width="2.72323" stroke-miterlimit="10" stroke-linecap="round" stroke-linejoin="round"/>
<path d="M203.516 91.5913H218.494" stroke="white" stroke-width="2.72323" stroke-miterlimit="10" stroke-linecap="round" stroke-linejoin="round"/>
<path d="M153.409 91.5913H197.071" stroke="#263238" stroke-width="2.72323" stroke-miterlimit="10" stroke-linecap="round" stroke-linejoin="round"/>
<path d="M115.374 138.522H130.352" stroke="#263238" stroke-width="2.72323" stroke-miterlimit="10" stroke-linecap="round" stroke-linejoin="round"/>
<path d="M115.374 146.238H171.564" stroke="white" stroke-width="2.72323" stroke-miterlimit="10" stroke-linecap="round" stroke-linejoin="round"/>
<path d="M202.336 146.238H258.526" stroke="#263238" stroke-width="2.72323" stroke-miterlimit="10" stroke-linecap="round" stroke-linejoin="round"/>
<path d="M175.195 146.238H197.434" stroke="#263238" stroke-width="2.72323" stroke-miterlimit="10" stroke-linecap="round" stroke-linejoin="round"/>
<path d="M115.374 153.954H147.69" stroke="#263238" stroke-width="2.72323" stroke-miterlimit="10" stroke-linecap="round" stroke-linejoin="round"/>
<path d="M151.775 153.954H184.09" stroke="#263238" stroke-width="2.72323" stroke-miterlimit="10" stroke-linecap="round" stroke-linejoin="round"/>
<path d="M188.175 153.954H220.491" stroke="white" stroke-width="2.72323" stroke-miterlimit="10" stroke-linecap="round" stroke-linejoin="round"/>
<path d="M224.576 153.954H238.374" stroke="#263238" stroke-width="2.72323" stroke-miterlimit="10" stroke-linecap="round" stroke-linejoin="round"/>
<path d="M134.346 138.522H149.324" stroke="#263238" stroke-width="2.72323" stroke-miterlimit="10" stroke-linecap="round" stroke-linejoin="round"/>
<path d="M223.396 138.522H238.374" stroke="#263238" stroke-width="2.72323" stroke-miterlimit="10" stroke-linecap="round" stroke-linejoin="round"/>
<path d="M203.516 138.522H218.494" stroke="white" stroke-width="2.72323" stroke-miterlimit="10" stroke-linecap="round" stroke-linejoin="round"/>
<path d="M153.409 138.522H197.071" stroke="#263238" stroke-width="2.72323" stroke-miterlimit="10" stroke-linecap="round" stroke-linejoin="round"/>
<path d="M115.374 207.783H130.352" stroke="#263238" stroke-width="2.72323" stroke-miterlimit="10" stroke-linecap="round" stroke-linejoin="round"/>
<path d="M115.374 215.408H171.564" stroke="white" stroke-width="2.72323" stroke-miterlimit="10" stroke-linecap="round" stroke-linejoin="round"/>
<path d="M202.336 215.408H258.526" stroke="#263238" stroke-width="2.72323" stroke-miterlimit="10" stroke-linecap="round" stroke-linejoin="round"/>
<path d="M175.195 215.408H197.434" stroke="#263238" stroke-width="2.72323" stroke-miterlimit="10" stroke-linecap="round" stroke-linejoin="round"/>
<path d="M115.374 223.124H147.69" stroke="#263238" stroke-width="2.72323" stroke-miterlimit="10" stroke-linecap="round" stroke-linejoin="round"/>
<path d="M151.775 223.124H184.09" stroke="#263238" stroke-width="2.72323" stroke-miterlimit="10" stroke-linecap="round" stroke-linejoin="round"/>
<path d="M188.175 223.124H220.491" stroke="white" stroke-width="2.72323" stroke-miterlimit="10" stroke-linecap="round" stroke-linejoin="round"/>
<path d="M224.576 223.124H238.374" stroke="#263238" stroke-width="2.72323" stroke-miterlimit="10" stroke-linecap="round" stroke-linejoin="round"/>
<path d="M134.346 207.783H149.324" stroke="#263238" stroke-width="2.72323" stroke-miterlimit="10" stroke-linecap="round" stroke-linejoin="round"/>
<path d="M223.396 207.783H238.374" stroke="#263238" stroke-width="2.72323" stroke-miterlimit="10" stroke-linecap="round" stroke-linejoin="round"/>
<path d="M203.516 207.783H218.494" stroke="white" stroke-width="2.72323" stroke-miterlimit="10" stroke-linecap="round" stroke-linejoin="round"/>
<path d="M153.409 207.783H197.071" stroke="#263238" stroke-width="2.72323" stroke-miterlimit="10" stroke-linecap="round" stroke-linejoin="round"/>
<path d="M199.522 115.102H214.5" stroke="#263238" stroke-width="2.72323" stroke-miterlimit="10" stroke-linecap="round" stroke-linejoin="round"/>
<path d="M179.643 115.102H194.62" stroke="#263238" stroke-width="2.72323" stroke-miterlimit="10" stroke-linecap="round" stroke-linejoin="round"/>
<path d="M129.535 115.102H173.198" stroke="#263238" stroke-width="2.72323" stroke-miterlimit="10" stroke-linecap="round" stroke-linejoin="round"/>
<path d="M199.522 128.809H214.5" stroke="#263238" stroke-width="2.72323" stroke-miterlimit="10" stroke-linecap="round" stroke-linejoin="round"/>
<path d="M179.643 128.809H194.62" stroke="#263238" stroke-width="2.72323" stroke-miterlimit="10" stroke-linecap="round" stroke-linejoin="round"/>
<path d="M129.535 128.809H173.198" stroke="white" stroke-width="2.72323" stroke-miterlimit="10" stroke-linecap="round" stroke-linejoin="round"/>
<path d="M144.513 122.001H129.535" stroke="#263238" stroke-width="2.72323" stroke-miterlimit="10" stroke-linecap="round" stroke-linejoin="round"/>
<path d="M164.302 122.001H149.324" stroke="#263238" stroke-width="2.72323" stroke-miterlimit="10" stroke-linecap="round" stroke-linejoin="round"/>
<path d="M214.5 122.001H170.747" stroke="white" stroke-width="2.72323" stroke-miterlimit="10" stroke-linecap="round" stroke-linejoin="round"/>
<path d="M199.522 163.212H214.5" stroke="#263238" stroke-width="2.72323" stroke-miterlimit="10" stroke-linecap="round" stroke-linejoin="round"/>
<path d="M179.643 163.212H194.62" stroke="#263238" stroke-width="2.72323" stroke-miterlimit="10" stroke-linecap="round" stroke-linejoin="round"/>
<path d="M129.535 163.212H173.198" stroke="#263238" stroke-width="2.72323" stroke-miterlimit="10" stroke-linecap="round" stroke-linejoin="round"/>
<path d="M199.522 177.01H214.5" stroke="#263238" stroke-width="2.72323" stroke-miterlimit="10" stroke-linecap="round" stroke-linejoin="round"/>
<path d="M179.643 177.01H194.62" stroke="#263238" stroke-width="2.72323" stroke-miterlimit="10" stroke-linecap="round" stroke-linejoin="round"/>
<path d="M129.535 177.01H173.198" stroke="white" stroke-width="2.72323" stroke-miterlimit="10" stroke-linecap="round" stroke-linejoin="round"/>
<path d="M144.513 170.111H129.535" stroke="#263238" stroke-width="2.72323" stroke-miterlimit="10" stroke-linecap="round" stroke-linejoin="round"/>
<path d="M164.302 170.111H149.324" stroke="#263238" stroke-width="2.72323" stroke-miterlimit="10" stroke-linecap="round" stroke-linejoin="round"/>
<path d="M214.5 170.111H170.747" stroke="white" stroke-width="2.72323" stroke-miterlimit="10" stroke-linecap="round" stroke-linejoin="round"/>
<path d="M144.513 185.089H129.535" stroke="#263238" stroke-width="2.72323" stroke-miterlimit="10" stroke-linecap="round" stroke-linejoin="round"/>
<path d="M164.302 185.089H149.324" stroke="#263238" stroke-width="2.72323" stroke-miterlimit="10" stroke-linecap="round" stroke-linejoin="round"/>
<path d="M214.5 185.089H170.747" stroke="white" stroke-width="2.72323" stroke-miterlimit="10" stroke-linecap="round" stroke-linejoin="round"/>
<path d="M144.513 198.887H129.535" stroke="#263238" stroke-width="2.72323" stroke-miterlimit="10" stroke-linecap="round" stroke-linejoin="round"/>
<path d="M164.302 198.887H149.324" stroke="#263238" stroke-width="2.72323" stroke-miterlimit="10" stroke-linecap="round" stroke-linejoin="round"/>
<path d="M214.5 198.887H170.747" stroke="white" stroke-width="2.72323" stroke-miterlimit="10" stroke-linecap="round" stroke-linejoin="round"/>
<path d="M199.522 191.988H214.5" stroke="#263238" stroke-width="2.72323" stroke-miterlimit="10" stroke-linecap="round" stroke-linejoin="round"/>
<path d="M179.643 191.988H194.62" stroke="#263238" stroke-width="2.72323" stroke-miterlimit="10" stroke-linecap="round" stroke-linejoin="round"/>
<path d="M129.535 191.988H173.198" stroke="white" stroke-width="2.72323" stroke-miterlimit="10" stroke-linecap="round" stroke-linejoin="round"/>
<path d="M109.837 88.959H105.026V93.6793H109.837V88.959Z" fill="#263238"/>
<path d="M109.837 96.6748H105.026V101.395H109.837V96.6748Z" fill="#263238"/>
<path d="M109.837 104.481H105.026V109.202H109.837V104.481Z" fill="#263238"/>
<path d="M109.837 112.197H105.026V116.918H109.837V112.197Z" fill="#263238"/>
<path d="M109.837 120.004H105.026V124.724H109.837V120.004Z" fill="#263238"/>
<path d="M109.837 127.72H105.026V132.44H109.837V127.72Z" fill="#263238"/>
<path d="M109.837 135.526H105.026V140.247H109.837V135.526Z" fill="#263238"/>
<path d="M109.837 143.242H105.026V147.962H109.837V143.242Z" fill="#263238"/>
<path d="M109.837 151.049H105.026V155.769H109.837V151.049Z" fill="#263238"/>
<path d="M109.837 158.765H105.026V163.485H109.837V158.765Z" fill="#263238"/>
<path d="M109.837 166.48H105.026V171.201H109.837V166.48Z" fill="#263238"/>
<path d="M109.837 174.287H105.026V179.007H109.837V174.287Z" fill="#263238"/>
<path d="M109.837 182.003H105.026V186.723H109.837V182.003Z" fill="#263238"/>
<path d="M109.837 189.81H105.026V194.53H109.837V189.81Z" fill="#263238"/>
<path d="M109.837 197.525H105.026V202.246H109.837V197.525Z" fill="#263238"/>
<path d="M109.837 205.332H105.026V210.052H109.837V205.332Z" fill="#263238"/>
<path d="M109.837 213.048H105.026V217.768H109.837V213.048Z" fill="#263238"/>
<path d="M109.837 220.764H105.026V225.484H109.837V220.764Z" fill="#263238"/>
<path d="M332.325 4.17578C303.64 4.17578 280.402 27.414 280.402 56.0988C280.402 70.895 286.575 84.1481 296.469 93.5886L289.116 107.386L307.271 101.486C314.715 105.662 323.248 108.022 332.416 108.022C361.101 108.022 384.339 84.7835 384.339 56.0988C384.157 27.414 360.919 4.17578 332.325 4.17578Z" fill="#263238" stroke="#263238" stroke-width="0.907744" stroke-miterlimit="10" stroke-linecap="round" stroke-linejoin="round"/>
<path d="M329.784 0.454102C301.099 0.454102 277.861 23.6924 277.861 52.3771C277.861 67.1733 284.033 80.4264 293.928 89.8669L286.575 103.665L304.73 97.7643C312.173 101.94 320.706 104.3 329.874 104.3C358.559 104.3 381.797 81.0618 381.797 52.3771C381.707 23.6924 358.468 0.454102 329.784 0.454102Z" fill="white" stroke="#263238" stroke-width="0.907744" stroke-miterlimit="10" stroke-linecap="round" stroke-linejoin="round"/>
<path d="M312.446 73.7998L292.475 59.7298V52.2863L312.446 38.0347V45.5689L298.103 56.008L312.446 66.2655V73.7998Z" fill="#D4DFFF"/>
<path d="M318.527 76.2508L333.778 19.7891H340.223L324.882 76.2508H318.527Z" fill="#D4DFFF"/>
<path d="M346.214 73.7998V66.2655L360.556 55.8264L346.214 45.4781V37.9438L366.275 52.1047V59.5482L346.214 73.7998Z" fill="#D4DFFF"/>
<path d="M314.897 70.7134L294.926 56.6433V49.1998L314.897 34.9482V42.4825L300.554 52.8308L314.897 63.1791V70.7134Z" fill="#263238"/>
<path d="M320.979 73.1643L336.229 16.7026H342.674L327.424 73.1643H320.979Z" fill="#263238"/>
<path d="M348.755 70.7133V63.2698L363.098 52.74L348.755 42.3917V34.8574L368.726 49.0182V56.4617L348.755 70.7133Z" fill="#263238"/>
<path d="M290.387 331.781L321.795 357.742C321.795 357.742 323.611 362.644 327.968 368.272C332.325 373.809 382.977 394.869 382.977 394.869L391.601 397.32L297.014 326.244L290.387 331.781Z" fill="#263238" stroke="#263238" stroke-width="0.907744" stroke-miterlimit="10" stroke-linecap="round" stroke-linejoin="round"/>
<path d="M351.569 311.084C351.569 311.084 343.127 300.736 339.406 294.2C335.684 287.664 330.328 272.324 326.243 263.246C322.159 254.169 316.258 251.355 309.087 248.541C301.916 245.727 299.102 246.362 299.102 248.268C299.102 250.175 301.916 253.533 301.916 253.533L289.752 255.712C289.752 255.712 284.759 252.898 281.673 253.806C278.587 254.713 272.596 260.704 272.596 260.704C272.596 260.704 266.332 258.526 262.61 259.434C258.889 260.341 248.54 265.334 244.183 267.513C239.826 269.691 235.106 270.054 235.469 271.87C235.741 273.776 240.189 276.862 244.183 276.227C248.268 275.591 255.076 273.141 259.524 273.141C263.972 273.141 266.06 274.048 268.239 275.682C270.417 277.225 279.495 290.025 280.765 291.568C282.036 293.111 283.307 299.374 283.307 299.374C283.307 299.374 277.77 297.014 274.32 293.928C270.871 290.842 265.969 283.489 260.341 282.853C254.713 282.218 248.631 287.211 251.718 289.752C254.804 292.294 257.981 293.837 260.16 296.651C262.338 299.465 265.788 307.907 271.688 316.985C277.588 326.062 290.387 331.69 290.387 331.69L316.894 342.583C316.894 342.583 323.792 326.334 336.592 321.977C349.391 317.62 353.113 315.714 353.113 315.714L351.569 311.084Z" fill="white" stroke="#263238" stroke-width="0.907744" stroke-miterlimit="10" stroke-linecap="round" stroke-linejoin="round"/>
<path d="M235.378 272.051C235.378 272.051 238.465 271.234 239.281 270.962C240.189 270.689 241.188 269.782 241.188 269.782" stroke="#263238" stroke-width="0.907744" stroke-miterlimit="10" stroke-linecap="round" stroke-linejoin="round"/>
<path d="M272.505 260.795C272.505 260.795 286.847 268.874 290.932 271.053C292.566 271.961 296.56 273.776 297.74 277.861C299.193 282.672 302.097 285.305 302.097 285.305" stroke="#263238" stroke-width="0.907744" stroke-miterlimit="10" stroke-linecap="round" stroke-linejoin="round"/>
<path d="M289.752 255.803C289.752 255.803 303.822 266.696 304.73 267.059C305.637 267.331 309.087 267.694 310.63 270.508C312.173 273.322 313.716 276.409 313.716 276.409" stroke="#263238" stroke-width="0.907744" stroke-miterlimit="10" stroke-linecap="round" stroke-linejoin="round"/>
<path d="M301.916 253.624C301.916 253.624 306.908 252.716 308.815 256.438C310.721 260.16 318.8 269.237 318.8 269.237" stroke="#263238" stroke-width="0.907744" stroke-miterlimit="10" stroke-linecap="round" stroke-linejoin="round"/>
<path d="M257.255 293.928C257.255 293.928 260.977 292.022 259.161 289.208C257.255 286.394 253.533 286.394 253.533 286.394" stroke="#263238" stroke-width="0.907744" stroke-miterlimit="10" stroke-linecap="round" stroke-linejoin="round"/>
<path d="M350.934 307.09C350.934 307.09 334.05 311.447 323.429 323.339C312.809 335.23 312.809 345.215 313.716 346.759C314.624 348.302 334.958 359.285 334.958 359.285C334.958 359.285 347.484 335.23 356.199 329.33C364.913 323.429 371.177 321.796 371.177 321.796C371.177 321.796 355.563 311.81 354.928 310.54C354.383 309.269 353.113 306.092 350.934 307.09Z" fill="#D4DFFF" stroke="#263238" stroke-width="0.907744" stroke-miterlimit="10" stroke-linecap="round" stroke-linejoin="round"/>
<path d="M398.409 401.042C398.409 401.042 381.253 392.327 377.168 390.149C373.083 387.97 345.306 372.992 345.306 372.992C345.306 372.992 341.857 372.084 340.041 371.086C338.135 370.178 335.321 370.451 334.141 363.915C332.87 357.379 336.047 344.217 350.026 331.145C364.096 317.983 372.811 318.618 372.811 318.618C372.811 318.618 378.711 317.983 380.345 319.254C381.888 320.525 382.251 324.246 383.794 324.882C385.338 325.517 428.546 338.498 428.546 338.498" fill="#D4DFFF"/>
<path d="M398.409 401.042C398.409 401.042 381.253 392.327 377.168 390.149C373.083 387.97 345.306 372.992 345.306 372.992C345.306 372.992 341.857 372.084 340.041 371.086C338.135 370.178 335.321 370.451 334.141 363.915C332.87 357.379 336.047 344.217 350.026 331.145C364.096 317.983 372.811 318.618 372.811 318.618C372.811 318.618 378.711 317.983 380.345 319.254C381.888 320.525 382.251 324.246 383.794 324.882C385.338 325.517 428.546 338.498 428.546 338.498" stroke="#263238" stroke-width="0.907744" stroke-miterlimit="10" stroke-linecap="round" stroke-linejoin="round"/>
<path d="M349.391 353.022C349.391 353.022 347.485 362.372 351.933 370.178" stroke="#263238" stroke-width="0.907744" stroke-miterlimit="10" stroke-linecap="round" stroke-linejoin="round"/>
<path d="M353.748 365.186C353.748 365.186 351.842 365.821 356.834 373.9" stroke="#263238" stroke-width="0.907744" stroke-miterlimit="10" stroke-linecap="round" stroke-linejoin="round"/>
<path d="M161.306 304.186C161.306 304.186 140.7 328.695 134.528 333.596C128.355 338.498 122.818 341.675 122.818 341.675L100.578 363.915C100.578 363.915 101.214 367.001 95.0409 370.723C88.8682 374.445 76.5229 378.802 73.4366 379.982C70.3502 381.253 36.3098 396.685 36.3098 396.685L161.306 304.186Z" fill="#263238" stroke="#263238" stroke-width="0.907744" stroke-miterlimit="10" stroke-linecap="round" stroke-linejoin="round"/>
<path d="M191.171 266.696C188.992 267.331 181.186 266.877 181.186 266.877C181.186 266.877 176.465 263.155 174.015 261.068C171.654 258.889 165.573 246.09 162.577 245.454C159.581 244.819 146.782 252.172 146.782 252.172C146.782 252.172 136.434 247.633 133.801 248.087C131.169 248.541 122.727 256.075 122.727 256.075C122.727 256.075 111.017 254.35 108.839 257.8C106.66 261.249 103.211 272.324 99.7611 279.223C96.3116 286.121 83.7848 304.549 83.7848 304.549L82.0601 306.909C82.0601 306.909 84.6925 307.817 92.6807 311.901C100.669 315.986 113.468 335.503 113.468 335.503C113.468 335.503 131.26 327.242 141.154 322.704C151.139 318.165 159.128 308.18 161.306 304.095C163.485 300.01 167.116 296.107 171.654 292.385C176.193 288.663 184.635 287.211 186.632 284.578C188.538 281.946 185.361 278.042 185.361 278.042C185.361 278.042 187.721 276.772 188.811 275.864C189.9 274.956 194.257 272.596 194.62 270.054C194.983 267.513 193.35 266.06 191.171 266.696ZM157.766 287.483L161.851 274.956C163.576 276.227 171.201 279.041 171.201 279.041C166.208 280.403 157.766 287.483 157.766 287.483Z" fill="white" stroke="#263238" stroke-width="0.907744" stroke-miterlimit="10" stroke-linecap="round" stroke-linejoin="round"/>
<path d="M114.557 270.417C114.557 270.417 113.922 266.695 114.376 265.424C114.83 264.154 122.818 256.075 122.818 256.075" stroke="#263238" stroke-width="0.907744" stroke-miterlimit="10" stroke-linecap="round" stroke-linejoin="round"/>
<path d="M121.456 274.774L123.181 269.146L146.782 252.262" stroke="#263238" stroke-width="0.907744" stroke-miterlimit="10" stroke-linecap="round" stroke-linejoin="round"/>
<path d="M133.166 278.859C133.166 278.859 134.074 273.413 135.072 272.596C136.162 271.688 144.422 269.782 144.422 269.782C144.422 269.782 156.949 258.979 159.128 258.979C161.306 258.979 177.101 267.422 181.186 266.968" stroke="#263238" stroke-width="0.907744" stroke-miterlimit="10" stroke-linecap="round" stroke-linejoin="round"/>
<path d="M188.085 267.785C188.085 267.785 185.271 267.785 186.814 269.509C188.357 271.234 191.534 270.417 193.077 269.963" stroke="#263238" stroke-width="0.907744" stroke-miterlimit="10" stroke-linecap="round" stroke-linejoin="round"/>
<path d="M171.201 279.041C171.201 279.041 179.007 274.502 185.271 278.133" stroke="#263238" stroke-width="0.907744" stroke-miterlimit="10" stroke-linecap="round" stroke-linejoin="round"/>
<path d="M183.364 279.495L179.007 281.038C179.007 281.038 180.732 284.487 180.913 285.758C181.095 287.029 181.095 287.029 181.095 287.029" stroke="#263238" stroke-width="0.907744" stroke-miterlimit="10" stroke-linecap="round" stroke-linejoin="round"/>
<path d="M157.766 287.483L153.953 296.197" stroke="#263238" stroke-width="0.907744" stroke-miterlimit="10" stroke-linecap="round" stroke-linejoin="round"/>
<path d="M55.0093 321.07C55.0093 321.07 68.6254 312.174 73.618 308.543C78.6106 304.821 81.1523 305.547 83.7848 304.639C86.4172 303.732 99.398 307.635 108.022 318.528C116.645 329.33 115.828 337.318 114.739 339.497C113.65 341.675 86.4172 358.106 86.4172 358.106C86.4172 358.106 82.5139 342.492 71.0764 333.233C59.548 323.884 55.0093 321.07 55.0093 321.07Z" fill="#D4DFFF" stroke="#263238" stroke-width="0.907744" stroke-miterlimit="10" stroke-linecap="round" stroke-linejoin="round"/>
<path d="M0.453857 346.94C0.453857 346.94 25.6891 331.509 29.9555 328.967C34.1312 326.425 39.033 322.976 39.033 322.976C39.033 322.976 40.3946 316.259 46.7488 316.077C53.1938 315.805 59.3665 318.346 67.8085 322.976C76.2505 327.605 86.5988 344.399 87.7789 351.116C88.8682 357.833 91.1375 359.83 89.322 364.278C87.5065 368.635 80.88 368.908 79.6092 368.908C78.2475 368.908 75.1612 371.631 75.1612 371.631L27.777 402.494" fill="#D4DFFF"/>
<path d="M0.453857 346.94C0.453857 346.94 25.6892 331.509 29.9555 328.967C34.1312 326.425 39.033 322.976 39.033 322.976C39.033 322.976 40.3946 316.259 46.7488 316.077C53.1938 315.805 59.3665 318.346 67.8085 322.976C76.2505 327.605 86.5988 344.399 87.7789 351.116C88.8682 357.833 91.1375 359.83 89.322 364.278C87.5065 368.635 80.88 368.908 79.6092 368.908C78.2475 368.908 75.1612 371.631 75.1612 371.631L27.777 402.494" stroke="#263238" stroke-width="0.907744" stroke-miterlimit="10" stroke-linecap="round" stroke-linejoin="round"/>
<path d="M78.7922 357.107C78.7922 357.107 80.7892 358.559 76.7952 364.732" stroke="#263238" stroke-width="0.907744" stroke-miterlimit="10" stroke-linecap="round" stroke-linejoin="round"/>
<path d="M75.9783 360.012C75.9783 360.012 75.706 366.457 69.7148 372.357" stroke="#263238" stroke-width="0.907744" stroke-miterlimit="10" stroke-linecap="round" stroke-linejoin="round"/>
</g>
<defs>
<clipPath id="clip0_18_2268">
<rect width="429" height="404.763" fill="white"/>
</clipPath>
</defs>
</svg>
