<svg xmlns="http://www.w3.org/2000/svg" xmlns:xlink="http://www.w3.org/1999/xlink" viewBox="0 0 299.95 216.89"><defs><style>.cls-1{fill:url(#linear-gradient);}.cls-2{fill:url(#linear-gradient-2);}</style><linearGradient id="linear-gradient" x1="-13.46" y1="198.51" x2="305.18" y2="-37.4" gradientUnits="userSpaceOnUse"><stop offset="0" stop-color="#2eb8cd"/><stop offset="1" stop-color="#63b22f"/></linearGradient><linearGradient id="linear-gradient-2" x1="45.43" y1="278.05" x2="364.07" y2="42.14" xlink:href="#linear-gradient"/></defs><g id="Layer_2" data-name="Layer 2"><g id="Layer_2-2" data-name="Layer 2"><path class="cls-1" d="M206.42,43.06,170.71,7.44a25.4,25.4,0,0,0-18-7.44H63.65a25.41,25.41,0,0,0-18,7.44L10,43.06a34,34,0,0,0-10,24v82.73a33.92,33.92,0,0,0,10,24l35.71,35.62a25.41,25.41,0,0,0,18,7.44h89.09a25.4,25.4,0,0,0,18-7.44l35.71-35.62a33.92,33.92,0,0,0,10-24V67.08A34,34,0,0,0,206.42,43.06ZM163.25,163.78H53.11V53.13H163.25Z"/><rect class="cls-2" x="249.06" y="0.01" width="50.88" height="216.89"/></g></g></svg>