<svg width="150" height="41" viewBox="0 0 150 41" fill="none" xmlns="http://www.w3.org/2000/svg">
<mask id="mask0_558_804" style="mask-type:luminance" maskUnits="userSpaceOnUse" x="0" y="0" width="150" height="41">
<path d="M149.075 0H0.259766V41H149.075V0Z" fill="white"/>
</mask>
<g mask="url(#mask0_558_804)">
<path d="M18.2954 22.1474C17.8041 22.1473 17.3281 21.9756 16.9485 21.6614C16.5687 21.3473 16.3089 20.9101 16.2133 20.4245C16.1176 19.9389 16.192 19.4349 16.4237 18.9984C16.6555 18.5619 17.0303 18.2198 17.4842 18.0307C17.9382 17.8415 18.4432 17.8168 18.9131 17.9608C19.3831 18.1048 19.789 18.4087 20.0616 18.8206C20.3342 19.2324 20.4566 19.7269 20.408 20.2195C20.3594 20.7122 20.1428 21.1726 19.795 21.5223C19.5983 21.7209 19.3645 21.8784 19.1071 21.9857C18.8497 22.0929 18.5739 22.1479 18.2954 22.1474ZM10.0054 15.7929C10.2113 15.6729 10.3695 15.4847 10.4531 15.2602C10.5367 15.0359 10.5406 14.7892 10.464 14.5623C10.3874 14.3354 10.2351 14.1423 10.0331 14.0158C9.8311 13.8893 9.59182 13.8373 9.35607 13.8687C9.12027 13.9001 8.9026 14.0129 8.74007 14.1879C8.57754 14.3628 8.48025 14.5892 8.46472 14.8284C8.44923 15.0675 8.51647 15.3047 8.65498 15.4995C8.7935 15.6943 8.99479 15.8347 9.22447 15.8968C9.48821 15.9677 9.769 15.9303 10.0054 15.7929ZM26.2032 15.4093C26.3218 15.617 26.5083 15.7768 26.7308 15.8616C26.9533 15.9463 27.198 15.9506 27.4233 15.8739C27.6486 15.7971 27.8405 15.6441 27.9664 15.4407C28.0923 15.2373 28.1443 14.9963 28.1136 14.7586C28.083 14.5209 27.9715 14.3013 27.7982 14.1372C27.6248 13.973 27.4004 13.8745 27.1631 13.8584C26.9258 13.8424 26.6904 13.9097 26.4968 14.049C26.3033 14.1882 26.1636 14.3908 26.1016 14.6222C26.0664 14.7537 26.0572 14.8909 26.0747 15.0259C26.0921 15.161 26.1358 15.2913 26.2032 15.4093ZM17.7813 29.3531C17.6637 29.4207 17.5607 29.5112 17.4782 29.6192C17.3957 29.7273 17.3353 29.8509 17.3006 29.9827C17.2385 30.2149 17.2581 30.4616 17.3562 30.6808C17.4543 30.9 17.6248 31.0781 17.8386 31.1848C18.0525 31.2915 18.2964 31.3201 18.5288 31.2659C18.7613 31.2116 18.9678 31.0778 19.1134 30.8872C19.2588 30.6966 19.3343 30.4611 19.3268 30.2207C19.3192 29.9804 19.2292 29.7501 19.0721 29.5691C18.915 29.3882 18.7004 29.2677 18.4651 29.2283C18.2297 29.1889 17.988 29.233 17.7813 29.3531ZM36.331 9.51634V26.8635C36.3298 27.9703 36.0402 29.0574 35.4912 30.0159C34.9422 30.9745 34.1531 31.7709 33.2027 32.3255L25.7483 36.6627L18.2954 40.9999L10.8424 36.6627L3.38802 32.3255C2.43767 31.7709 1.6485 30.9745 1.09951 30.0159C0.550512 29.0574 0.260938 27.9703 0.259766 26.8635V9.51634L7.71266 5.17913L15.1671 0.841961C16.1188 0.29032 17.1975 0 18.2954 0C19.3932 0 20.4719 0.29032 21.4236 0.841961L28.8781 5.17913L36.331 9.51634ZM25.2888 3.94737C26.395 5.05959 27.3625 6.30357 28.1699 7.65187C29.1042 9.21136 29.7596 10.924 30.1063 12.7119L32.6674 11.2219L35.2301 9.73028L30.2579 6.83884L25.2888 3.94737ZM7.99321 5.8745C10.4816 5.21277 13.6917 4.84293 17.011 5.7675C20.3303 6.69213 23.7633 8.91265 26.6763 13.4271C26.6187 13.4444 26.5611 13.4643 26.5034 13.4867C26.4462 13.5103 26.3905 13.5374 26.3366 13.5677C26.2259 13.632 26.1239 13.7106 26.0333 13.8016C25.9466 13.8902 25.8703 13.9887 25.8059 14.095C25.4509 13.8998 25.0692 13.7587 24.6732 13.6763C24.2143 13.5806 23.7467 13.534 23.2781 13.5372C23.1841 13.5372 23.0871 13.5372 22.9885 13.5463L22.6852 13.5647C22.8867 14.0869 23.0574 14.6207 23.1963 15.1632C23.3473 15.7505 23.4677 16.3453 23.5571 16.9452C24.0286 17.3236 24.4801 17.7266 24.9097 18.1525C25.3069 18.546 25.681 18.9624 26.0303 19.3996C26.3571 18.9171 26.6273 18.3981 26.8355 17.853C27.0128 17.3942 27.1118 16.9085 27.1281 16.4164C27.2517 16.4136 27.3744 16.3957 27.4936 16.3629C27.617 16.3275 27.7352 16.2762 27.8454 16.2101C27.8896 16.1855 27.9322 16.1579 27.9728 16.1276C28.0133 16.0986 28.0522 16.0674 28.0895 16.0344C28.5973 17.2965 28.8578 18.6458 28.8568 20.0078C28.8568 20.0598 28.8568 20.1117 28.8568 20.1606V20.3135C29.1161 19.4798 29.3128 18.6277 29.4451 17.7643C29.5713 16.9403 29.6291 16.107 29.618 15.2733C29.6004 14.0322 29.4199 12.7989 29.0812 11.6055C28.7337 10.386 28.2343 9.2157 27.5952 8.12258C26.6521 6.52516 25.4805 5.07663 24.1182 3.82359C23.238 3.0065 22.2881 2.26908 21.2795 1.61984L21.0551 1.48383C20.2152 0.997238 19.2634 0.741165 18.2946 0.741165C17.3258 0.741165 16.374 0.997238 15.5341 1.48383L11.7613 3.67993L7.99321 5.8745ZM9.73852 24.8814C9.74915 24.9028 9.76126 24.9242 9.77342 24.944L9.80978 25.0067C10.1322 25.5169 10.6115 25.9066 11.1745 26.1163C11.8577 26.376 12.5842 26.5006 13.3141 26.483C13.4081 26.483 13.5052 26.483 13.6037 26.483L13.907 26.4647C13.7053 25.942 13.5347 25.4077 13.396 24.8646C13.2415 24.2755 13.118 23.6787 13.026 23.0765C12.5549 22.6977 12.1035 22.2948 11.6734 21.8692C11.2762 21.4752 10.9021 21.0583 10.5528 20.6206C10.0683 21.3151 9.72082 22.097 9.52928 22.9237C9.37763 23.6496 9.44282 24.316 9.73852 24.8814ZM10.0995 20.0109C9.79493 19.576 9.52762 19.1159 9.30029 18.6354C9.10027 18.2079 8.94774 17.7595 8.8454 17.2982C8.72243 17.734 8.62871 18.1777 8.56485 18.6262C8.37174 19.9982 8.46731 21.3958 8.8454 22.7281C8.94774 22.2673 9.10032 21.8194 9.30029 21.3924C9.52727 20.9118 9.79464 20.4516 10.0995 20.017M12.8016 20.017C12.8016 19.6716 12.8102 19.3318 12.8274 18.9976C12.8425 18.6614 12.8668 18.3313 12.8971 18.0073C12.5256 18.3344 12.1783 18.6675 11.8599 19.0037C11.5532 19.3262 11.2632 19.6644 10.991 20.017C11.2636 20.3692 11.5536 20.7074 11.8599 21.0302C12.1783 21.3664 12.5256 21.6996 12.8971 22.0266C12.8668 21.7011 12.8425 21.371 12.8274 21.0363C12.8122 20.7016 12.8016 20.3608 12.8016 20.017ZM11.2518 26.914C11.8805 27.5659 12.5948 28.1279 13.3748 28.5844C14.1659 29.0481 15.0179 29.3974 15.9056 29.622C15.5606 29.3012 15.2524 28.9423 14.9867 28.5522C14.6866 28.1128 14.4239 27.6486 14.2012 27.1646C14.0496 27.1799 13.8979 27.1891 13.7463 27.1967C13.5946 27.2043 13.4521 27.2074 13.308 27.2074C12.9423 27.2082 12.577 27.1832 12.2148 27.1325C11.8878 27.0854 11.5652 27.0113 11.2503 26.9109M14.6394 26.376C15.0786 26.3152 15.5144 26.2316 15.945 26.1254C16.3938 26.0154 16.8528 25.8793 17.3218 25.7174C17.0186 25.5808 16.7214 25.4367 16.4302 25.2848C16.1269 25.1321 15.8388 24.9716 15.5477 24.8019C15.2566 24.6323 14.9685 24.4519 14.6849 24.2747C14.4013 24.0974 14.1329 23.9064 13.8691 23.7169C13.9646 24.2044 14.0768 24.672 14.2057 25.1167C14.3289 25.5449 14.4742 25.9662 14.6409 26.3791M18.2954 25.3521C18.6896 25.1886 19.0869 25.0113 19.4857 24.8157C19.8845 24.62 20.2833 24.4076 20.6821 24.1754C21.0809 23.9431 21.4631 23.7031 21.8315 23.454C22.2 23.2049 22.5533 22.9467 22.893 22.6899C22.9506 22.265 22.9946 21.8279 23.0249 21.3817C23.0552 20.9354 23.0704 20.48 23.0704 20.017C23.0704 19.5539 23.0552 19.1 23.0249 18.6507C22.9946 18.2014 22.9506 17.7689 22.893 17.3425C22.5563 17.0797 22.2025 16.825 21.8315 16.5784C21.4605 16.3318 21.0774 16.0909 20.6821 15.8555C20.2833 15.6247 19.883 15.4123 19.4857 15.2167C19.0884 15.0211 18.6896 14.8423 18.2954 14.6803C17.9011 14.8423 17.5043 15.0211 17.105 15.2167C16.7077 15.4123 16.3074 15.6247 15.9101 15.8555C15.5129 16.0863 15.1277 16.3293 14.7592 16.5784C14.3907 16.8275 14.0374 17.0842 13.6978 17.3425C13.6401 17.7689 13.5961 18.206 13.5658 18.6507C13.5355 19.0954 13.5203 19.5539 13.5203 20.017C13.5203 20.48 13.5355 20.9339 13.5658 21.3817C13.5961 21.8295 13.6401 22.265 13.6978 22.6899C14.0344 22.9527 14.3877 23.211 14.7592 23.454C15.1307 23.697 15.5174 23.9446 15.9101 24.1754C16.3029 24.4061 16.7077 24.62 17.105 24.8157C17.5023 25.0113 17.9011 25.1886 18.2954 25.3521ZM22.3986 12.8525C22.5503 12.8388 22.7019 12.8281 22.8536 12.8219C23.0052 12.8158 23.1568 12.8113 23.2933 12.8113C23.6585 12.8105 24.0233 12.8355 24.3851 12.8861C24.7121 12.9325 25.0347 13.0067 25.3495 13.1077C24.7205 12.4558 24.0063 11.8933 23.2265 11.4358C22.4353 10.9726 21.5834 10.6238 20.6958 10.3997C21.0408 10.7206 21.349 11.0794 21.6147 11.4694C21.9143 11.9073 22.1766 12.37 22.3986 12.8525ZM21.9437 13.6411C21.5045 13.7024 21.0687 13.7866 20.6381 13.8933C20.1832 14.0033 19.7283 14.1393 19.2628 14.3013C19.56 14.4368 19.8567 14.581 20.1529 14.7338C20.4562 14.8866 20.7443 15.0394 21.0354 15.2167C21.3266 15.394 21.6207 15.5652 21.8998 15.747C22.1787 15.9289 22.4517 16.1138 22.7155 16.3033C22.62 15.8173 22.5078 15.3497 22.3789 14.905C22.2557 14.4763 22.1104 14.0545 21.9437 13.6411ZM18.2954 10.1016C17.6433 10.1016 17.0216 10.3737 16.456 10.8658C15.8186 11.4526 15.3032 12.1611 14.9396 12.9503C15.4946 13.0379 16.044 13.1584 16.5849 13.311C17.1618 13.4741 17.7301 13.6664 18.2878 13.8871C18.8455 13.6664 19.4138 13.4741 19.9907 13.311C20.5331 13.1582 21.084 13.0377 21.6404 12.9503C21.2769 12.1611 20.7615 11.4526 20.1241 10.8658C19.5585 10.3737 18.9368 10.1016 18.2847 10.1016M15.8904 10.4073C14.1245 10.8576 12.5171 11.7929 11.2473 13.1093C11.5629 13.0075 11.8866 12.9334 12.2148 12.8877C12.5774 12.8357 12.9433 12.8102 13.3096 12.8113C13.4612 12.8113 13.6007 12.8113 13.7493 12.8219C13.8979 12.8326 14.0526 12.8388 14.2042 12.8525C14.4247 12.3676 14.6854 11.9024 14.9836 11.4618C15.2488 11.0718 15.5565 10.7129 15.901 10.392M13.8691 16.2941C14.1329 16.1046 14.4049 15.9192 14.6849 15.7379C14.9654 15.556 15.252 15.3787 15.5492 15.2075C15.8464 15.0364 16.1361 14.8759 16.4318 14.7246C16.7275 14.5733 17.0247 14.4281 17.3234 14.2921C16.8543 14.1301 16.3953 13.9941 15.9465 13.8841C15.5159 13.7774 15.0802 13.6932 14.6409 13.6319C14.4755 14.0484 14.3317 14.4733 14.2103 14.905C14.0814 15.3497 13.9692 15.8219 13.8737 16.3033M19.2719 25.7204C19.741 25.8824 20.1999 26.0184 20.6487 26.1285C21.0794 26.2347 21.5152 26.3183 21.9544 26.3791C22.1211 25.9662 22.2663 25.5449 22.3895 25.1167C22.5184 24.672 22.6306 24.1998 22.7262 23.7169C22.4623 23.9064 22.1894 24.0928 21.9103 24.2747C21.6314 24.4565 21.3417 24.6323 21.046 24.805C20.7504 24.9777 20.4592 25.1351 20.1635 25.2879C19.8678 25.4407 19.5706 25.5844 19.2719 25.7204ZM20.6942 29.6205C22.4647 29.1704 24.076 28.2327 25.3479 26.9124C25.032 27.0128 24.7085 27.0869 24.3805 27.134C24.0179 27.186 23.652 27.2115 23.2857 27.2105C23.1417 27.2105 22.9946 27.2105 22.846 27.1997C22.6974 27.1891 22.5427 27.1829 22.3911 27.1677C22.1695 27.6509 21.9072 28.1142 21.6071 28.5522C21.3414 28.9419 21.0337 29.3007 20.6897 29.622M26.787 25.0006C26.7991 24.9807 26.8097 24.9609 26.8203 24.941L26.8537 24.8814C27.1479 24.316 27.207 23.6496 27.0614 22.9252C26.8694 22.0982 26.5219 21.3159 26.0379 20.6206C25.6891 21.0587 25.3149 21.4756 24.9173 21.8692C24.4873 22.2948 24.0358 22.6977 23.5647 23.0765C23.4755 23.676 23.355 24.2703 23.2038 24.857C23.0651 25.4 22.8945 25.9344 22.6928 26.457L22.9961 26.4754C23.0947 26.4754 23.1917 26.4754 23.2857 26.4754C24.0172 26.4948 24.7457 26.3724 25.4314 26.1147C25.9951 25.9033 26.4745 25.5114 26.7961 24.9991M23.7982 20.0109C23.7982 20.3547 23.7891 20.6955 23.774 21.0302C23.7588 21.3649 23.733 21.695 23.7027 22.0205C24.0742 21.6934 24.4214 21.3603 24.7399 21.0241C25.0462 20.7012 25.3362 20.3631 25.6088 20.0109C25.3366 19.6583 25.0466 19.3201 24.7399 18.9976C24.4214 18.6614 24.0742 18.3282 23.7027 18.0012C23.733 18.3252 23.7568 18.6553 23.774 18.9915C23.7891 19.3262 23.7982 19.6655 23.7982 20.0109ZM27.759 22.7265C28.1369 21.3942 28.2325 19.9967 28.0395 18.6247C27.976 18.1761 27.8823 17.7324 27.759 17.2967C27.6564 17.7574 27.5038 18.2053 27.3041 18.6324C27.0762 19.1125 26.8089 19.5726 26.5049 20.0078C26.8094 20.4427 27.0768 20.9028 27.3041 21.3832C27.5041 21.8107 27.6567 22.2592 27.759 22.7205M1.37429 9.73028L4.05067 11.2906L6.72857 12.8525C8.14535 11.7578 9.73925 10.9181 11.4399 10.3706C13.3035 9.75932 15.478 9.38948 18.0133 9.3635H18.1543H18.2954C20.2594 9.36123 22.1848 9.91399 23.8528 10.959C23.2643 10.3154 22.6286 9.71719 21.9513 9.16942C21.3058 8.64635 20.618 8.1786 19.8951 7.77107C18.8327 7.17336 17.6975 6.71767 16.5182 6.4155C15.3125 6.10948 14.0737 5.9565 12.8304 5.96011H12.7394C10.895 5.98367 9.0642 6.28183 7.30629 6.84496C6.16119 7.20369 5.04993 7.66393 3.98546 8.22039L3.89903 8.25245L2.62984 8.9906L1.37429 9.73028ZM0.996718 21.938C1.3994 20.4176 1.98448 18.9525 2.73901 17.5748C3.61248 15.9802 4.75703 14.5525 6.12051 13.3569L3.55785 11.8652L0.996718 10.3722V21.938ZM11.308 36.0728C9.48836 34.2389 7.57165 31.6164 6.70583 28.2573C5.83996 24.8982 6.02195 20.7979 8.4481 15.9931C8.54 16.0811 8.6418 16.158 8.75139 16.2223C8.86177 16.2891 8.98063 16.3405 9.10468 16.3751C9.16305 16.391 9.22226 16.4033 9.28211 16.4118C9.34279 16.4118 9.4019 16.424 9.46105 16.4256C9.47738 16.9168 9.57687 17.4016 9.75523 17.859C9.96349 18.4034 10.2331 18.9218 10.5589 19.4042C10.9082 18.9669 11.2823 18.5506 11.6795 18.1571C12.1091 17.7312 12.5606 17.3282 13.0321 16.9497C13.1215 16.3499 13.2419 15.7551 13.393 15.1678C13.5318 14.6253 13.7025 14.0915 13.904 13.5693L13.6007 13.5509C13.5021 13.5509 13.4051 13.5417 13.3111 13.5417C12.842 13.5386 12.3739 13.5852 11.9145 13.6808C11.5185 13.7641 11.1369 13.9057 10.7818 14.1011C10.6901 13.95 10.5725 13.8165 10.4346 13.7068C10.2982 13.5981 10.1443 13.5138 9.97961 13.4577C10.8778 12.2973 12.0036 11.3358 13.2868 10.6335C12.44 10.8248 11.6087 11.0803 10.8 11.3976C10.0279 11.6989 9.28226 12.0649 8.57093 12.4919C7.51415 13.1277 6.54541 13.9016 5.68984 14.7934C4.81772 15.7071 4.06321 16.7278 3.44412 17.8316C2.54292 19.4538 1.8838 21.201 1.48802 23.0169C1.22289 24.1948 1.06203 25.3941 1.00733 26.6007C1.00733 26.6236 1.00733 26.8635 1.00733 26.8635C1.00888 27.8401 1.26455 28.7991 1.74881 29.6449C2.23307 30.4907 2.929 31.1937 3.76711 31.6837L7.53984 33.8782L11.308 36.0728ZM17.9329 33.6857C16.2507 32.9819 14.7042 31.9856 13.3642 30.7422C11.8797 29.3837 10.4543 27.6155 9.14869 25.3368C8.21813 23.7193 7.72947 21.8821 7.73241 20.0124V19.8596C7.73241 19.8076 7.73241 19.7556 7.73241 19.7067C7.47431 20.5406 7.27816 21.3927 7.14558 22.2559C7.01937 23.0799 6.96153 23.9132 6.97271 24.7469C6.99055 25.9879 7.17052 27.2211 7.50798 28.4147C7.85744 29.6338 8.35718 30.8039 8.99553 31.8976C9.93864 33.4954 11.1108 34.944 12.474 36.1966C13.3531 37.0178 14.3031 37.7584 15.3127 38.4095L15.3597 38.4401L15.3931 38.463L16.6607 39.2011L17.9284 39.9377V33.6857H17.9329ZM28.6066 34.1442C27.8497 34.3475 27.0816 34.5062 26.3063 34.6195C25.4556 34.7438 24.5972 34.8072 23.7376 34.8089C22.9034 34.8097 22.0704 34.7448 21.2462 34.6149C20.3693 34.4778 19.5064 34.2609 18.6684 33.9669V39.9271L23.6375 37.0356L28.6066 34.1442ZM35.5909 18.0822C34.9162 20.5855 33.6288 23.5732 31.1753 26.0077C28.7219 28.4422 25.1008 30.325 19.7601 30.6184C19.8051 30.4356 19.8164 30.246 19.7935 30.0591C19.7688 29.8724 19.7108 29.6917 19.6222 29.5258C20.0377 29.2658 20.4059 28.9361 20.7109 28.5508C21.0754 28.095 21.3868 27.5987 21.6389 27.0714C21.0839 26.9832 20.5346 26.8623 19.9937 26.7092C19.4181 26.5467 18.8513 26.3543 18.2954 26.133C17.7379 26.354 17.1696 26.5458 16.5925 26.7076C16.0516 26.8608 15.5022 26.9817 14.9472 27.0699C15.2003 27.5975 15.5121 28.0943 15.8768 28.5508C16.1822 28.9357 16.5503 29.2653 16.9655 29.5258C16.8827 29.6815 16.8272 29.8506 16.8018 30.0255C16.7757 30.2018 16.7809 30.3813 16.8169 30.5558C15.3688 30.3514 13.9792 29.8433 12.7379 29.0643C13.3263 29.7094 13.9619 30.3091 14.6394 30.8584C15.2852 31.3811 15.973 31.8488 16.6956 32.2568C17.7736 32.8622 18.9265 33.3211 20.1241 33.6215C21.3456 33.9266 22.6005 34.0755 23.8589 34.0647C25.7034 34.0405 27.5342 33.7418 29.292 33.1783C30.4373 32.8201 31.5486 32.3598 32.6128 31.8029L32.8418 31.676C33.6764 31.1849 34.3692 30.4824 34.8514 29.6383C35.3336 28.7941 35.5885 27.8376 35.5909 26.8635V18.0822ZM35.5909 10.3722L32.9131 11.9341L30.2306 13.4944C30.4642 15.3138 30.3795 17.1603 29.9804 18.9502C29.5543 20.9248 28.7476 23.0536 27.442 25.3322C26.4609 27.0419 25.0305 28.4455 23.3084 29.3882C24.1561 29.1961 24.9883 28.9408 25.7983 28.6241C26.5695 28.3214 27.3146 27.9548 28.0259 27.5283C29.083 26.8929 30.0518 26.119 30.9069 25.2268C31.7812 24.3138 32.5373 23.293 33.1572 22.1886C34.0587 20.5666 34.7173 18.8193 35.1118 17.0032C35.3757 15.8257 35.5361 14.627 35.5909 13.421C35.5909 13.3981 35.5909 13.3355 35.5909 13.3247V10.3722Z" fill="#3A55A5"/>
<path d="M44.1675 12.1268H45.4064L45.5156 12.7809H45.5535C45.9842 12.3621 46.5012 12.0015 47.1988 12.0015C48.3133 12.0015 48.7879 12.7946 48.7879 14.0845V17.2938H47.267V14.2801C47.267 13.5374 47.0699 13.3051 46.6301 13.3051C46.2495 13.3051 46.016 13.4839 45.6824 13.8064V17.2908H44.166L44.1675 12.1268Z" fill="#3A55A5"/>
<path d="M50.0737 12.1268H51.3128L51.4216 12.7809H51.4598C51.8902 12.3621 52.4072 12.0015 53.1047 12.0015C54.2193 12.0015 54.6957 12.7946 54.6957 14.0845V17.2938H53.1807V14.2801C53.1807 13.5374 52.9836 13.3051 52.5455 13.3051C52.1632 13.3051 51.9387 13.4839 51.5961 13.8064V17.2908H50.0796L50.0737 12.1268Z" fill="#3A55A5"/>
<path d="M55.6831 14.7095C55.6831 12.9933 56.8825 12.0015 58.1789 12.0015C59.4753 12.0015 60.6746 12.9903 60.6746 14.7095C60.6746 16.4288 59.4753 17.4222 58.1852 17.4222C56.8947 17.4222 55.689 16.4304 55.689 14.7172M59.1253 14.7172C59.1253 13.8247 58.8126 13.244 58.1852 13.244C57.5574 13.244 57.2447 13.8247 57.2447 14.7172C57.2447 15.6097 57.5574 16.1874 58.1852 16.1874C58.8126 16.1874 59.1253 15.6112 59.1253 14.7172Z" fill="#3A55A5"/>
<path d="M61.0854 12.127H62.6107L63.2763 14.5721C63.4087 15.0841 63.5435 15.619 63.6738 16.1585H63.7165C63.8468 15.619 63.9816 15.0887 64.1135 14.5721L64.7791 12.127H66.2333L64.5654 17.2909H62.8112L61.0854 12.127Z" fill="#3A55A5"/>
<path d="M66.5884 15.8572C66.5884 14.7706 67.4466 14.1762 69.4694 13.9653C69.4395 13.5145 69.2165 13.2195 68.6597 13.2195C68.2308 13.2195 67.8015 13.4013 67.3045 13.678L66.7673 12.6846C67.4182 12.2572 68.1745 12.0207 68.9508 12.0015C70.2609 12.0015 70.9873 12.7564 70.9873 14.3382V17.2892H69.7488L69.6395 16.7605H69.6017C69.1709 17.1425 68.6916 17.4146 68.1107 17.4146C67.177 17.4146 66.584 16.7284 66.584 15.8572M69.465 15.79V14.8884C68.3867 15.0411 68.0338 15.3468 68.0338 15.7365C68.0338 16.0697 68.2612 16.2317 68.622 16.2317C68.9827 16.2317 69.1969 16.0605 69.465 15.79Z" fill="#3A55A5"/>
<path d="M71.812 16.6932L72.4963 15.7411C72.9599 16.0942 73.3878 16.2836 73.8167 16.2836C74.2715 16.2836 74.4641 16.1094 74.4641 15.8389C74.4641 15.4997 73.9563 15.3453 73.4285 15.1359C72.8006 14.8914 72.0728 14.4711 72.0728 13.6183C72.0728 12.6571 72.8491 12.0015 74.0309 12.0015C74.6886 12.0076 75.3253 12.2382 75.8365 12.6555L75.1572 13.5725C74.792 13.3066 74.4323 13.1324 74.0794 13.1324C73.6863 13.1324 73.4937 13.2852 73.4937 13.545C73.4937 13.8736 73.973 14.0035 74.5038 14.1945C75.1528 14.436 75.8835 14.8058 75.8835 15.7472C75.8835 16.6886 75.1528 17.4222 73.7789 17.4222C73.0619 17.4025 72.3703 17.1495 71.8076 16.7009" fill="#3A55A5"/>
<path d="M79.5356 19.2043L79.8057 18.0382C79.9174 18.0738 80.0326 18.0964 80.1498 18.1055C80.6517 18.1055 80.908 17.8273 81.0472 17.4269L81.1232 17.1579L79.1519 12.127H80.6776L81.4099 14.349C81.5613 14.8167 81.68 15.3057 81.8147 15.8116H81.8554C81.9691 15.3241 82.0848 14.8335 82.2117 14.349L82.8337 12.127H84.2865L82.5029 17.3459C82.0162 18.6404 81.4707 19.3098 80.2649 19.3098C80.0179 19.3135 79.7719 19.2779 79.5356 19.2043Z" fill="#3A55A5"/>
<path d="M84.6289 15.8572C84.6289 14.7706 85.4871 14.1762 87.5099 13.9653C87.4795 13.5145 87.257 13.2195 86.7002 13.2195C86.2713 13.2195 85.842 13.4013 85.3445 13.678L84.8078 12.6846C85.4602 12.2565 86.2179 12.0199 86.9958 12.0015C88.3059 12.0015 89.0323 12.7564 89.0323 14.3382V17.2892H87.7937L87.6844 16.7605H87.6467C87.2158 17.1425 86.7365 17.4146 86.1557 17.4146C85.222 17.4146 84.6289 16.7284 84.6289 15.8572ZM87.5099 15.79V14.8884C86.4321 15.0411 86.0787 15.3468 86.0787 15.7365C86.0787 16.0697 86.3061 16.2317 86.6669 16.2317C87.0276 16.2317 87.2418 16.0605 87.5099 15.79Z" fill="#3A55A5"/>
<path d="M91.8267 12.127H93.3524L94.0195 14.5721C94.1499 15.0841 94.2847 15.619 94.4165 16.1585H94.4577C94.5895 15.619 94.7228 15.0887 94.8547 14.5721L95.5222 12.127H96.975L95.3066 17.2909H93.5539L91.8267 12.127Z" fill="#3A55A5"/>
<path d="M97.4796 14.9177C97.4781 14.69 97.4992 14.4626 97.5433 14.2392H100.608C100.488 13.5087 100.069 13.1694 99.4293 13.1694C99.0303 13.1754 98.6417 13.2952 98.3074 13.5148L97.8055 12.5245C98.3692 12.1693 99.024 11.9881 99.6886 12.0033C101.04 12.0033 102.078 13.0258 102.078 14.7083C102.078 16.391 100.958 17.4225 99.6798 17.4225C98.2241 17.4225 97.4796 16.3528 97.4796 14.9254M100.624 15.2585H98.776C98.776 15.8484 99.0352 16.2565 99.645 16.2565C100.144 16.2565 100.523 15.9508 100.624 15.2585Z" fill="#3A55A5"/>
<path d="M110.576 17.2908L109.06 14.5766C109.778 14.2495 110.259 13.6168 110.259 12.6189C110.259 11.0065 109.089 10.5068 107.662 10.5068H105.235V17.2908H106.752V14.8455H107.587L108.873 17.2908H110.576ZM106.752 11.7248H107.53C108.331 11.7248 108.759 11.948 108.759 12.6189C108.759 13.2898 108.331 13.6321 107.53 13.6321H106.752V11.7248Z" fill="#3A55A5"/>
<path d="M111.14 14.9177C111.139 14.69 111.161 14.4628 111.204 14.2392H114.268C114.149 13.5087 113.73 13.1694 113.091 13.1694C112.692 13.1752 112.304 13.2949 111.969 13.5148L111.468 12.5245C112.031 12.1691 112.686 11.9879 113.351 12.0033C114.702 12.0033 115.739 13.0257 115.739 14.7084C115.739 16.3909 114.62 17.4225 113.34 17.4225C111.885 17.4225 111.14 16.3528 111.14 14.9254M114.29 15.2509H112.437C112.437 15.8408 112.697 16.2488 113.307 16.2488C113.805 16.2488 114.183 15.9432 114.285 15.2509" fill="#3A55A5"/>
<path d="M119.845 17.6316L119.899 16.843C119.558 17.1898 119.099 17.394 118.615 17.4146C117.341 17.4146 116.519 16.3967 116.519 14.7095C116.519 13.0224 117.565 12.0015 118.642 12.0015C119.199 12.0015 119.603 12.1955 120.007 12.6357H120.052L120.18 12.1268H121.367V19.2057H119.85L119.845 17.6316ZM119.845 15.6999V13.5802C119.612 13.3654 119.306 13.2484 118.991 13.2531C118.5 13.2531 118.069 13.7116 118.069 14.6927C118.069 15.7059 118.416 16.1629 119.004 16.1629C119.171 16.1645 119.335 16.1232 119.481 16.043C119.626 15.9627 119.75 15.8462 119.839 15.7044" fill="#3A55A5"/>
<path d="M122.407 14.9163C122.406 14.6885 122.427 14.4612 122.471 14.2378H125.536C125.416 13.5072 124.998 13.168 124.359 13.168C123.96 13.1736 123.571 13.2928 123.237 13.5118L122.735 12.5215C123.299 12.1663 123.954 11.9852 124.618 12.0004C125.97 12.0004 127.008 13.0228 127.008 14.7054C127.008 16.388 125.888 17.4211 124.602 17.4211C123.146 17.4211 122.401 16.3513 122.401 14.9239M125.547 15.2571H123.704C123.704 15.847 123.963 16.2551 124.573 16.2551C125.072 16.2551 125.451 15.9494 125.552 15.2571" fill="#3A55A5"/>
<path d="M128.048 12.1268H129.287L129.396 12.7885H129.434C129.854 12.3621 130.314 12.0015 130.987 12.0015C131.707 12.0015 132.142 12.3071 132.4 12.8711C132.855 12.3973 133.332 12.0015 134.009 12.0015C135.116 12.0015 135.612 12.7946 135.612 14.0845V17.2938H134.095V14.2801C134.095 13.5374 133.894 13.3051 133.463 13.3051C133.205 13.3051 132.914 13.467 132.591 13.8064V17.2908H131.075V14.2801C131.075 13.5374 130.873 13.3051 130.443 13.3051C130.188 13.3051 129.894 13.467 129.571 13.8064V17.2908H128.054L128.048 12.1268Z" fill="#3A55A5"/>
<path d="M136.446 16.6932L137.128 15.7411C137.592 16.0942 138.021 16.2836 138.45 16.2836C138.879 16.2836 139.098 16.1094 139.098 15.8389C139.098 15.4997 138.59 15.3453 138.062 15.1359C137.434 14.8914 136.707 14.4711 136.707 13.6183C136.707 12.6571 137.481 12.0015 138.664 12.0015C139.322 12.0076 139.959 12.2382 140.47 12.6555L139.791 13.5725C139.425 13.3066 139.066 13.1324 138.711 13.1324C138.32 13.1324 138.126 13.2852 138.126 13.545C138.126 13.8736 138.606 14.0035 139.137 14.1945C139.786 14.436 140.517 14.8058 140.517 15.7472C140.517 16.6886 139.786 17.4222 138.412 17.4222C137.695 17.4025 137.004 17.1495 136.441 16.7009" fill="#3A55A5"/>
<path d="M141.237 15.8572C141.237 14.7706 142.095 14.1761 144.118 13.9652C144.087 13.5143 143.863 13.2194 143.308 13.2194C142.878 13.2194 142.448 13.4013 141.951 13.6778L141.417 12.6845C142.069 12.2574 142.826 12.0219 143.604 12.0044C144.914 12.0044 145.64 12.7594 145.64 14.3411V17.2922H144.402L144.292 16.7634H144.255C143.824 17.1454 143.344 17.4175 142.764 17.4175C141.83 17.4175 141.237 16.7313 141.237 15.8602M144.118 15.7929V14.8913C143.038 15.0441 142.687 15.3497 142.687 15.7394C142.687 16.0726 142.913 16.2346 143.273 16.2346C143.634 16.2346 143.848 16.0634 144.118 15.7929Z" fill="#3A55A5"/>
<path d="M146.915 15.6866V10H148.431V15.7416C148.431 16.0702 148.582 16.1741 148.705 16.1741C148.768 16.1759 148.83 16.1693 148.89 16.1542L149.073 17.2821C148.83 17.3741 148.573 17.4172 148.314 17.4089C147.272 17.4089 146.916 16.7243 146.916 15.6805" fill="#3A55A5"/>
<path d="M41.1871 10.5067H42.7035V17.2906H41.1871V10.5067ZM41.1871 8.73389H42.7186V10.0008H41.1841L41.1871 8.73389Z" fill="#3A55A5"/>
<path d="M76.8354 12.1257H78.3519V17.2896H76.8354V12.1257ZM76.8354 9.93262H78.3627V11.201H76.8354V9.93262Z" fill="#3A55A5"/>
<path d="M44.1675 24.6156H45.4064L45.5156 25.2696H45.5535C45.9842 24.8509 46.5012 24.4902 47.1988 24.4902C48.3133 24.4902 48.7879 25.2834 48.7879 26.5732V29.7826H47.267V26.7719C47.267 26.0292 47.0699 25.7969 46.6301 25.7969C46.2495 25.7969 46.016 25.9757 45.6824 26.2981V29.7826H44.166L44.1675 24.6156Z" fill="#3A55A5"/>
<path d="M50.0737 22.4883H51.5583V26.665H51.5961L53.2204 24.6156H54.8682L53.0748 26.7429L55.0049 29.7796H53.3596L52.2073 27.7653L51.5583 28.5081V29.7796H50.0737V22.4883Z" fill="#3A55A5"/>
<path d="M62.2014 28.24C62.2014 27.2955 61.4692 26.9272 60.8217 26.6857C60.2894 26.4901 59.8101 26.3648 59.8101 26.0347C59.8101 25.778 60.0041 25.6236 60.3953 25.6236C60.7501 25.6236 61.1094 25.7963 61.4736 26.0637L62.1544 25.1468C61.6431 24.7294 61.0065 24.4989 60.3482 24.4927C59.1655 24.4927 58.3906 25.1483 58.3906 26.1096C58.3906 26.9624 59.1185 27.3826 59.7463 27.6272C60.2742 27.8365 60.7805 27.9893 60.7805 28.3301C60.7805 28.6006 60.5864 28.7749 60.1345 28.7749C59.6826 28.7749 59.2763 28.5854 58.8121 28.2323L58.1299 29.1844C58.6347 29.5855 59.243 29.8321 59.8831 29.8951L59.4616 30.7585C60.086 30.8411 60.2482 30.9878 60.2482 31.1972C60.2482 31.4921 59.9983 31.6098 59.1871 31.6556L59.3008 32.2669C60.5879 32.2226 61.3388 31.9001 61.3388 31.1972C61.3388 30.7646 61.0658 30.543 60.5472 30.4208L60.8016 29.8355C61.7118 29.6276 62.1985 29.0026 62.1985 28.2461" fill="#3A55A5"/>
<path d="M62.9224 28.346C62.9224 27.2594 63.7806 26.6649 65.8034 26.454C65.773 26.0032 65.5485 25.7082 64.9922 25.7082C64.5629 25.7082 64.1335 25.8901 63.6365 26.1743L63.0964 25.1703C63.7492 24.7434 64.507 24.508 65.2848 24.4902C66.5949 24.4902 67.3213 25.2452 67.3213 26.8269V29.7795H66.0823L65.973 29.2492H65.9352C65.5044 29.6313 65.0255 29.9033 64.4447 29.9033C63.5105 29.9033 62.9175 29.2171 62.9175 28.346M65.7985 28.2788V27.3771C64.7192 27.5299 64.3673 27.8356 64.3673 28.2253C64.3673 28.5584 64.5932 28.7204 64.954 28.7204C65.3152 28.7204 65.5289 28.5493 65.7985 28.2788Z" fill="#3A55A5"/>
<path d="M70.9651 23.5615C71.1474 23.5659 71.3273 23.6037 71.4959 23.6731L71.7689 22.5452C71.4415 22.4239 71.0955 22.3619 70.7465 22.3618C69.3638 22.3618 68.8634 23.2559 68.8634 24.3486V24.6221L68.1812 24.6741V25.8157H68.8634V29.78H70.3799V25.8142H71.3018V24.6145H70.3799V24.3088C70.3799 23.7739 70.5936 23.5676 70.9651 23.5676" fill="#3A55A5"/>
<path d="M80.2575 29.778H81.8676L79.7536 22.9956H77.9343L75.8203 29.778H77.3745L77.7916 28.1626H79.8433L80.2575 29.778ZM78.098 26.9706L78.2602 26.344C78.4469 25.6655 78.6273 24.8708 78.7895 24.1556H78.8302C79.0111 24.8631 79.19 25.6655 79.3762 26.344L79.5384 26.9706H78.098Z" fill="#3A55A5"/>
<path d="M87.7402 27.2031C87.7402 25.5221 88.9249 24.4951 90.1561 24.4951C91.6147 24.4951 92.3382 25.5649 92.3382 26.9739C92.3396 27.2007 92.3181 27.427 92.2744 27.6494H89.2097C89.3464 28.3983 89.8556 28.7421 90.5379 28.7421C90.9315 28.7353 91.3153 28.6183 91.6466 28.4044L92.1485 29.3213C91.6113 29.6899 90.9785 29.8923 90.3286 29.9036C88.8671 29.9036 87.7373 28.9087 87.7373 27.1986M91.0383 26.6331C91.0383 26.0662 90.7928 25.6566 90.1865 25.6566C89.7071 25.6566 89.293 25.9821 89.19 26.6331H91.0383Z" fill="#3A55A5"/>
<path d="M93.3862 24.6156H94.6248L94.7341 25.2696H94.7718C95.2027 24.8509 95.7197 24.4902 96.4172 24.4902C97.5318 24.4902 98.0062 25.2834 98.0062 26.5732V29.7826H96.4902V26.7719C96.4902 26.0292 96.2912 25.7969 95.8545 25.7969C95.4727 25.7969 95.2389 25.9757 94.9056 26.2981V29.7826H93.3892L93.3862 24.6156Z" fill="#3A55A5"/>
<path d="M99.4983 27.9014V25.8153H98.7974V24.6738L99.583 24.6157L99.7605 23.2402H101.016V24.6157H102.244V25.8153H101.016V27.8831C101.016 28.4684 101.28 28.7038 101.679 28.7038C101.845 28.6981 102.01 28.6651 102.166 28.6059L102.405 29.717C102.038 29.8396 101.653 29.9025 101.266 29.9034C100.002 29.9034 99.4983 29.098 99.4983 27.9014Z" fill="#3A55A5"/>
<path d="M103.249 28.1749V22.4883H104.765V28.236C104.765 28.5646 104.916 28.6686 105.039 28.6686C105.101 28.6704 105.163 28.6637 105.224 28.6487L105.406 29.7766C105.164 29.8685 104.907 29.9117 104.648 29.9034C103.606 29.9034 103.251 29.2187 103.251 28.1749" fill="#3A55A5"/>
<path d="M108.895 31.6931L109.164 30.527C109.277 30.5626 109.392 30.5851 109.51 30.5943C110.011 30.5943 110.268 30.3162 110.406 29.9157L110.482 29.6468L108.511 24.6157H110.036L110.769 26.8378C110.92 27.3055 111.038 27.7945 111.172 28.3003H111.214C111.328 27.8128 111.442 27.3223 111.569 26.8378L112.193 24.6157H113.645L111.863 29.8347C111.378 31.1291 110.831 31.7985 109.627 31.7985C109.379 31.8024 109.133 31.7668 108.896 31.6931" fill="#3A55A5"/>
<path d="M87.1783 28.8948C87.1783 30.5162 86.0726 31.2956 84.4003 31.2956C83.766 31.305 83.1382 31.1653 82.5667 30.8876L82.9715 29.8652C83.3979 30.1047 83.8773 30.2319 84.3655 30.235C85.1384 30.235 85.6859 29.8911 85.6859 28.9497V28.6686H85.6677C85.5045 28.897 85.2879 29.0816 85.0374 29.2063C84.7865 29.3309 84.5096 29.3918 84.2302 29.3838C83.0264 29.3838 82.2349 28.3965 82.2349 27.0288C82.2349 25.6609 83.0431 24.5743 84.2836 24.5743C84.5846 24.5709 84.8816 24.6428 85.1487 24.7836C85.4153 24.9245 85.6432 25.1298 85.8118 25.3813H85.83L85.8662 24.6737H87.1783V28.8948ZM85.7393 26.9844C85.7393 26.205 85.3795 25.6609 84.7429 25.6609C84.1062 25.6609 83.745 26.2493 83.745 27.0012C83.745 27.7531 84.068 28.3247 84.7336 28.3247C85.3996 28.3247 85.7393 27.7623 85.7393 26.9844Z" fill="#3A55A5"/>
<path d="M41.1856 22.9955H42.702V29.7779H41.1856V22.9955ZM41.1856 21.2212H42.7186V22.4896H41.1841L41.1856 21.2212Z" fill="#3A55A5"/>
<path d="M55.7329 24.6158H57.2494V29.7782H55.7329V24.6158ZM55.7329 22.4258H57.2611V23.6881H55.73L55.7329 22.4258Z" fill="#3A55A5"/>
<path d="M106.2 24.6158H107.717V29.7782H106.2V24.6158ZM106.2 22.4258H107.729V23.6881H106.197L106.2 22.4258Z" fill="#3A55A5"/>
<path d="M114.431 24.6158H115.947V29.7782H114.431V24.6158ZM114.431 22.4258H115.958V23.6881H114.428L114.431 22.4258Z" fill="#3A55A5"/>
</g>
</svg>
