<svg width="87" height="72" viewBox="0 0 87 72" fill="none" xmlns="http://www.w3.org/2000/svg">
<path d="M44.1036 26.6015C43.3943 26.6015 42.7532 26.3151 42.2874 25.8493C41.8236 25.3855 41.5352 24.7425 41.5352 24.0331C41.5352 23.3238 41.8217 22.6827 42.2874 22.217C42.7512 21.7532 43.3943 21.4648 44.1036 21.4648C44.8129 21.4648 45.454 21.7512 45.9198 22.217C46.3836 22.6808 46.672 23.3238 46.672 24.0331C46.672 24.7425 46.3855 25.3836 45.9198 25.8493C45.456 26.3151 44.8129 26.6015 44.1036 26.6015ZM34.0698 18.9685C34.368 18.797 34.5687 18.5203 34.6505 18.2124C34.7324 17.9045 34.6973 17.5655 34.5258 17.2673C34.3543 16.9692 34.0776 16.7704 33.7697 16.6866C33.4618 16.6048 33.1227 16.6398 32.8246 16.8113C32.5264 16.9828 32.3277 17.2595 32.2439 17.5674C32.162 17.8753 32.1971 18.2144 32.3686 18.5125C32.5401 18.8107 32.8168 19.0114 33.1247 19.0932C33.4326 19.1751 33.7717 19.14 34.0698 18.9685ZM53.6775 18.5086C53.849 18.8068 54.1257 19.0075 54.4336 19.0893C54.7415 19.1712 55.0805 19.1361 55.3787 18.9646C55.6768 18.7931 55.8776 18.5164 55.9594 18.2085C56.0412 17.9006 56.0062 17.5616 55.8347 17.2634C55.6632 16.9653 55.3865 16.7645 55.0786 16.6827C54.7707 16.6009 54.4316 16.6359 54.1335 16.8074C53.8353 16.9789 53.6346 17.2556 53.5528 17.5635C53.4709 17.8714 53.506 18.2105 53.6775 18.5086ZM43.482 35.2556C43.1838 35.4271 42.9831 35.7038 42.9013 36.0117C42.8194 36.3196 42.8545 36.6587 43.026 36.9568C43.1975 37.255 43.4742 37.4557 43.7821 37.5375C44.09 37.6194 44.429 37.5843 44.7272 37.4128C45.0253 37.2414 45.226 36.9646 45.3079 36.6567C45.3897 36.3489 45.3547 36.0098 45.1832 35.7116C45.0117 35.4135 44.735 35.2128 44.4271 35.1309C44.1192 35.0491 43.7801 35.0842 43.482 35.2556ZM65.9386 11.429V21.8487V32.2683C65.9386 33.6168 65.5762 34.9205 64.9214 36.0546C64.2666 37.1887 63.3196 38.1553 62.1523 38.8295L53.1299 44.0384L44.1075 49.2472L35.0851 44.0384L26.0588 38.8276C24.8915 38.1533 23.9444 37.1868 23.2897 36.0527C22.6349 34.9185 22.2725 33.6148 22.2725 32.2664V21.8467V11.429L31.2949 6.22021L40.3173 1.01137C41.4846 0.337122 42.7941 0 44.1055 0C45.4151 0 46.7246 0.337122 47.8938 1.01137L56.9162 6.22021L65.9386 11.429ZM52.5706 4.74115C53.7691 5.94739 55.0065 7.43424 56.0549 9.19C57.1033 10.9477 57.9607 12.9763 58.3972 15.268L61.4995 13.4771L64.6018 11.6863L58.5862 8.21371L52.5706 4.74115ZM31.6281 7.05619C34.6408 6.25918 38.5265 5.81683 42.5466 6.92758C46.5648 8.03833 50.7135 10.7041 54.2504 16.1293C54.1803 16.1507 54.1101 16.1721 54.0399 16.2014C53.9717 16.2287 53.9035 16.2618 53.8373 16.2988C53.7009 16.3787 53.5801 16.4722 53.4729 16.5794C53.3676 16.6866 53.2761 16.8055 53.1981 16.9321C52.8006 16.708 52.3407 16.5405 51.8262 16.4294C51.3137 16.3183 50.7467 16.2618 50.1387 16.2618C50.0237 16.2618 49.9068 16.2657 49.786 16.2715C49.6671 16.2774 49.5463 16.2852 49.4255 16.293C49.6593 16.8932 49.8678 17.5343 50.0432 18.2144C50.2205 18.8925 50.3667 19.6077 50.4797 20.354C51.0701 20.8256 51.6177 21.3108 52.1166 21.8039C52.6174 22.2969 53.0695 22.7996 53.4729 23.3024C53.8957 22.671 54.2231 22.0455 54.4492 21.4433C54.6733 20.8412 54.7941 20.2624 54.8038 19.7188C54.9519 19.7149 55.1 19.6934 55.2462 19.6545C55.3923 19.6155 55.5346 19.5551 55.6729 19.4771C55.7256 19.4459 55.7782 19.4128 55.8269 19.3777C55.8756 19.3427 55.9243 19.3056 55.9691 19.2647C56.2673 20.0033 56.4992 20.773 56.657 21.572C56.8149 22.369 56.8967 23.1933 56.8967 24.037C56.8967 24.0994 56.8967 24.1618 56.8948 24.2241C56.8928 24.2865 56.8928 24.3488 56.8909 24.4112C57.2105 23.3803 57.4482 22.3573 57.6021 21.3479C57.7561 20.3384 57.8262 19.3407 57.8126 18.3566C57.7892 16.8581 57.5729 15.3868 57.1637 13.9526C56.7545 12.5184 56.1543 11.1212 55.3631 9.76877C54.114 7.633 52.5687 5.91037 51.1539 4.60475C49.7372 3.29913 48.4511 2.41052 47.7165 1.94674C47.6931 1.93115 47.4456 1.78305 47.4456 1.78305C46.4147 1.1887 45.2592 0.89055 44.1036 0.89055C42.948 0.89055 41.7925 1.1887 40.7616 1.78305L36.1939 4.41962L31.6281 7.05619ZM33.7444 29.8851C33.758 29.9104 33.7736 29.9357 33.7872 29.9611C33.8009 29.9864 33.8165 30.0117 33.8301 30.0371C34.1906 30.6314 34.7557 31.0757 35.4768 31.37C36.1978 31.6642 37.0766 31.8104 38.0666 31.8104C38.1815 31.8104 38.2985 31.8065 38.4193 31.8006C38.5381 31.7948 38.659 31.787 38.7798 31.7792C38.5459 31.179 38.3374 30.5379 38.162 29.8578C37.9847 29.1796 37.8386 28.4645 37.7255 27.7181C37.1351 27.2465 36.5875 26.7613 36.0886 26.2683C35.5878 25.7753 35.1357 25.2725 34.7324 24.7698C34.0932 25.7266 33.6684 26.6658 33.491 27.5369C33.3157 28.406 33.3878 29.2069 33.7444 29.8851ZM34.1828 24.0351C33.795 23.4797 33.4716 22.9243 33.2143 22.3787C32.9591 21.8331 32.772 21.2952 32.659 20.773C32.5109 21.2913 32.3959 21.8233 32.3199 22.369C32.2419 22.9127 32.203 23.47 32.203 24.0351C32.203 24.6002 32.2439 25.1556 32.3218 25.7012C32.3998 26.2449 32.5128 26.7788 32.6609 27.2972C32.7739 26.7769 32.961 26.2391 33.2163 25.6934C33.4716 25.1459 33.795 24.5905 34.1828 24.0351ZM37.4547 24.0351C37.4547 23.622 37.4644 23.2128 37.4839 22.8113C37.5034 22.4079 37.5326 22.0124 37.5696 21.6226C37.1195 22.0163 36.7005 22.4157 36.3147 22.8191C35.9289 23.2225 35.5781 23.6298 35.2624 24.037C35.5781 24.4443 35.9289 24.8516 36.3147 25.255C36.7005 25.6584 37.1195 26.0578 37.5696 26.4515C37.5326 26.0617 37.5034 25.6642 37.4839 25.2628C37.4644 24.8574 37.4547 24.4482 37.4547 24.0351ZM35.5761 32.3268C36.3342 33.1062 37.1994 33.7844 38.1445 34.3339C39.0916 34.8834 40.1205 35.3063 41.2078 35.5791C40.8123 35.2206 40.442 34.7899 40.0951 34.2969C39.7502 33.8039 39.4306 33.2446 39.1442 32.6327C38.9591 32.6483 38.7778 32.6619 38.5986 32.6697C38.4193 32.6775 38.2419 32.6834 38.0666 32.6834C37.6008 32.6834 37.1604 32.6522 36.7454 32.5918C36.3303 32.5314 35.9405 32.4437 35.5761 32.3268ZM39.6801 31.6856C40.1906 31.6155 40.7187 31.5161 41.2624 31.3836C41.8061 31.2511 42.3615 31.0874 42.9285 30.8945C42.568 30.7308 42.2075 30.5574 41.849 30.3742C41.4904 30.191 41.1338 29.9981 40.7811 29.7935C40.4225 29.5869 40.0737 29.3726 39.7346 29.1562C39.3956 28.938 39.0662 28.7158 38.7486 28.4878C38.8636 29.0725 39 29.6337 39.1559 30.1696C39.3098 30.7016 39.4852 31.2102 39.6801 31.6856ZM44.1036 30.4502C44.581 30.2553 45.0623 30.041 45.5437 29.8071C46.025 29.5733 46.5083 29.318 46.9915 29.0393C47.4729 28.7607 47.9386 28.4703 48.3849 28.1722C48.8311 27.8721 49.2579 27.5642 49.6671 27.2485C49.7372 26.7379 49.7899 26.2137 49.8269 25.6778C49.8639 25.142 49.8814 24.5944 49.8814 24.037C49.8814 23.4797 49.862 22.9321 49.8269 22.3963C49.7899 21.8604 49.7372 21.3362 49.6671 20.8256C49.2598 20.5099 48.8311 20.202 48.3849 19.9019C47.9386 19.6018 47.4748 19.3115 46.9915 19.0348C46.5102 18.7561 46.025 18.5008 45.5437 18.267C45.0623 18.0331 44.581 17.8188 44.1036 17.6239C43.6262 17.8188 43.1448 18.0331 42.6635 18.267C42.1822 18.5008 41.6989 18.7561 41.2156 19.0348C40.7343 19.3134 40.2686 19.6038 39.8223 19.9019C39.3761 20.202 38.9493 20.5099 38.5401 20.8256C38.4699 21.3362 38.4173 21.8604 38.3803 22.3963C38.3433 22.9321 38.3257 23.4797 38.3257 24.037C38.3257 24.5944 38.3452 25.142 38.3803 25.6778C38.4173 26.2137 38.4699 26.7379 38.5401 27.2485C38.9474 27.5642 39.3761 27.8721 39.8223 28.1722C40.2686 28.4723 40.7324 28.7626 41.2156 29.0393C41.6989 29.318 42.1822 29.5733 42.6635 29.8071C43.1468 30.041 43.6262 30.2553 44.1036 30.4502ZM49.063 15.4375C49.2481 15.4219 49.4294 15.4083 49.6086 15.4005C49.7879 15.3927 49.9652 15.3868 50.1406 15.3868C50.6064 15.3868 51.0468 15.418 51.4618 15.4784C51.8769 15.5388 52.2666 15.6265 52.631 15.7434C51.873 14.964 51.0078 14.2858 50.0627 13.7363C49.1156 13.1868 48.0867 12.7639 46.9993 12.4911C47.3949 12.8496 47.7652 13.2803 48.112 13.7733C48.457 14.2663 48.7746 14.8237 49.063 15.4375ZM48.5291 16.3846C48.0185 16.4547 47.4904 16.5541 46.9467 16.6866C46.405 16.8191 45.8477 16.9828 45.2806 17.1757C45.6411 17.3394 46.0016 17.5128 46.3602 17.696C46.7187 17.8792 47.0753 18.0721 47.4281 18.2767C47.7866 18.4833 48.1354 18.6976 48.4745 18.914C48.8136 19.1322 49.1429 19.3544 49.4605 19.5824C49.3456 18.9977 49.2092 18.4365 49.0533 17.9006C48.8993 17.3667 48.722 16.86 48.5291 16.3846ZM44.1036 12.1325C43.3144 12.1325 42.5622 12.4599 41.8762 13.0504C41.1903 13.6408 40.5726 14.4963 40.0503 15.5544C40.6973 15.6538 41.3637 15.7999 42.0419 15.989C42.72 16.178 43.4099 16.4079 44.1036 16.6808C44.7973 16.4099 45.4872 16.178 46.1653 15.989C46.8434 15.7999 47.5099 15.6557 48.1569 15.5544C47.6346 14.4963 47.0169 13.6408 46.3309 13.0504C45.647 12.4599 44.8948 12.1325 44.1036 12.1325ZM41.2059 12.493C40.1185 12.7658 39.0877 13.1887 38.1426 13.7382C37.1955 14.2878 36.3303 14.964 35.5722 15.7454C35.9366 15.6285 36.3264 15.5388 36.7434 15.4784C37.1604 15.418 37.6028 15.3868 38.0685 15.3868C38.2439 15.3868 38.4212 15.3907 38.6005 15.4005C38.7798 15.4083 38.963 15.4219 39.1461 15.4375C39.4326 14.8256 39.7502 14.2683 40.0951 13.7753C40.4401 13.2803 40.8123 12.8516 41.2059 12.493ZM38.7467 19.5824C39.0662 19.3544 39.3956 19.1322 39.7327 18.914C40.0718 18.6957 40.4206 18.4833 40.7791 18.2767C41.1338 18.0721 41.4904 17.8792 41.847 17.696C42.2056 17.5128 42.5661 17.3414 42.9266 17.1757C42.3595 16.9809 41.8041 16.8191 41.2605 16.6866C40.7187 16.5541 40.1887 16.4528 39.6781 16.3846C39.4852 16.86 39.3079 17.3667 39.152 17.9006C38.998 18.4365 38.8616 18.9977 38.7467 19.5824ZM45.2825 30.8925C45.8496 31.0874 46.405 31.2491 46.9487 31.3816C47.4924 31.5142 48.0205 31.6155 48.531 31.6837C48.7239 31.2082 48.9013 30.7016 49.0572 30.1676C49.213 29.6337 49.3495 29.0705 49.4644 28.4859C49.1448 28.7139 48.8155 28.936 48.4784 29.1543C48.1393 29.3726 47.7905 29.585 47.4319 29.7915C47.0792 29.9961 46.7207 30.1891 46.3641 30.3722C46.0016 30.5574 45.6431 30.7288 45.2825 30.8925ZM47.0032 35.5772C48.0906 35.3044 49.1215 34.8815 50.0666 34.332C51.0136 33.7824 51.8789 33.1062 52.6369 32.3248C52.2725 32.4417 51.8828 32.5314 51.4657 32.5918C51.0487 32.6522 50.6064 32.6834 50.1406 32.6834C49.9652 32.6834 49.7879 32.6795 49.6086 32.6697C49.4294 32.6619 49.2462 32.6483 49.063 32.6327C48.7765 33.2446 48.4589 33.8019 48.114 34.2949C47.7671 34.788 47.3969 35.2186 47.0032 35.5772ZM54.3849 30.0254C54.3985 30.002 54.4121 29.9786 54.4258 29.9533C54.4394 29.9299 54.4531 29.9045 54.4667 29.8812C54.8233 29.203 54.8954 28.4021 54.7181 27.531C54.5408 26.6619 54.1159 25.7227 53.4787 24.7659C53.0753 25.2706 52.6233 25.7714 52.1224 26.2644C51.6216 26.7574 51.074 27.2426 50.4855 27.7142C50.3725 28.4586 50.2264 29.1738 50.049 29.8539C49.8717 30.532 49.6651 31.1751 49.4313 31.7753C49.5521 31.7831 49.6729 31.7909 49.7918 31.7967C49.9107 31.8026 50.0295 31.8065 50.1445 31.8065C51.1364 31.8065 52.0192 31.6603 52.7421 31.3641C53.4612 31.0699 54.0244 30.6236 54.3849 30.0254ZM50.7545 24.0351C50.7545 24.4482 50.7447 24.8574 50.7252 25.2608C50.7057 25.6642 50.6765 26.0598 50.6395 26.4495C51.0896 26.0559 51.5086 25.6564 51.8944 25.253C52.2803 24.8497 52.631 24.4424 52.9467 24.0351C52.631 23.6278 52.2803 23.2205 51.8944 22.8172C51.5086 22.4138 51.0896 22.0143 50.6395 21.6207C50.6765 22.0104 50.7057 22.4079 50.7252 22.8094C50.7447 23.2128 50.7545 23.62 50.7545 24.0351ZM55.5502 27.2953C55.6983 26.7769 55.8132 26.2449 55.8892 25.6993C55.9672 25.1556 56.0062 24.5983 56.0062 24.0331C56.0062 23.468 55.9652 22.9127 55.8873 22.367C55.8094 21.8233 55.6963 21.2894 55.5482 20.7711C55.4352 21.2913 55.2481 21.8292 54.9929 22.3748C54.7376 22.9205 54.4121 23.4758 54.0244 24.0312C54.4121 24.5866 54.7356 25.142 54.9929 25.6876C55.2481 26.2371 55.4352 26.775 55.5502 27.2953ZM23.6073 11.6863L26.8538 13.5609L30.1003 15.4355C31.6671 14.2235 33.5476 13.1926 35.8041 12.4541C38.0607 11.7175 40.6914 11.2751 43.7606 11.2439C43.8171 11.242 43.8736 11.242 43.9302 11.24C43.9867 11.24 44.0432 11.2381 44.1016 11.2381C45.3352 11.2381 46.5278 11.4135 47.658 11.7408C48.7863 12.0682 49.8522 12.5476 50.8305 13.1536C50.0958 12.3586 49.328 11.6395 48.5291 11.0003C47.7301 10.3612 46.9 9.79994 46.0386 9.31862C44.7447 8.5976 43.3787 8.05392 41.9503 7.69146C40.5219 7.32901 39.0312 7.14583 37.4859 7.14583C37.4683 7.14583 37.4488 7.14583 37.4313 7.14583C37.4137 7.14583 37.3943 7.14583 37.3767 7.14583C34.9019 7.15948 32.6375 7.63495 30.7999 8.20982C28.9603 8.78273 27.5495 9.45308 26.7798 9.85646C26.7564 9.8701 26.6882 9.90322 26.6765 9.90907L25.1409 10.7957L23.6073 11.6863ZM23.163 26.3501C23.6093 24.7093 24.2757 22.8932 25.2734 21.1082C26.2712 19.3232 27.6002 17.5655 29.3657 16.0416L26.2634 14.2507L23.1611 12.4599V19.405V26.3501H23.163ZM35.6385 43.329C33.4443 41.1192 31.1156 37.976 30.0692 33.9403C29.0227 29.9065 29.2546 24.9802 32.1815 19.2082C32.2926 19.3154 32.4134 19.407 32.5459 19.4849C32.6784 19.5609 32.8207 19.6233 32.9727 19.6622C33.0448 19.6817 33.1169 19.6954 33.189 19.7051C33.2611 19.7149 33.3332 19.7207 33.4053 19.7227C33.4131 20.2644 33.5359 20.8432 33.76 21.4453C33.9841 22.0474 34.3134 22.671 34.7343 23.3024C35.1377 22.7977 35.5898 22.2969 36.0906 21.8039C36.5914 21.3108 37.137 20.8256 37.7275 20.354C37.8405 19.6096 37.9867 18.8945 38.164 18.2144C38.3413 17.5362 38.5479 16.8932 38.7817 16.293C38.6609 16.2852 38.5401 16.2774 38.4212 16.2715C38.3024 16.2657 38.1835 16.2618 38.0685 16.2618C37.4586 16.2618 36.8935 16.3183 36.379 16.4294C35.8645 16.5405 35.4047 16.708 35.0071 16.9321C34.8941 16.749 34.7518 16.5892 34.5882 16.4586C34.4225 16.328 34.2354 16.2267 34.0328 16.1585C34.5765 15.4648 35.1884 14.8295 35.8606 14.2624C36.5329 13.6954 37.2637 13.1946 38.0432 12.7736C36.9889 13.0133 35.9834 13.3173 35.0305 13.6895C34.0776 14.0617 33.1773 14.5002 32.3316 15.0049C31.0454 15.7727 29.8801 16.6983 28.8415 17.7681C27.8028 18.8399 26.8928 20.0598 26.1192 21.418C24.8934 23.5674 24.1744 25.7675 23.7515 27.646C23.3286 29.5245 23.2039 31.0835 23.1669 31.9507C23.165 31.9779 23.1611 32.2664 23.1611 32.2664C23.1611 33.457 23.4806 34.6067 24.0594 35.6064C24.6362 36.608 25.4722 37.4596 26.5031 38.054L31.0688 40.6905L35.6385 43.329ZM43.6593 40.4606C41.7925 39.6947 39.9237 38.5567 38.127 36.9257C36.3303 35.2946 34.6057 33.1686 33.0253 30.4326H33.0273H33.0292C32.4836 29.4914 32.0549 28.4742 31.7626 27.4024C31.4703 26.3307 31.3144 25.2024 31.3144 24.037C31.3144 23.9747 31.3144 23.9123 31.3163 23.85C31.3183 23.7876 31.3183 23.7253 31.3202 23.6629C31.0006 24.6938 30.7629 25.7168 30.6089 26.7262C30.455 27.7357 30.3848 28.7334 30.4004 29.7175C30.4238 31.216 30.6401 32.6873 31.0493 34.1215C31.4586 35.5557 32.0588 36.9529 32.8499 38.3053C34.099 40.4411 35.6443 42.1637 37.0591 43.4694C38.4758 44.775 39.7619 45.6636 40.4946 46.1274C40.518 46.1429 40.5375 46.1546 40.5531 46.1644C40.5687 46.1741 40.5823 46.1819 40.5921 46.1897L42.1276 47.0764L43.6632 47.963V44.2138V40.4606H43.6593ZM56.581 41.014C55.7178 41.242 54.7843 41.4408 53.7964 41.583C52.8084 41.7253 51.7658 41.811 50.6863 41.811C49.708 41.811 48.6966 41.7409 47.6716 41.5791C46.6447 41.4174 45.6002 41.1641 44.5518 40.7996V44.3794V47.9591L50.5674 44.4866L56.581 41.014ZM65.0461 21.7181C64.2296 24.7249 62.6707 28.3125 59.7009 31.2374C56.7311 34.1624 52.3485 36.4229 45.8827 36.7756C45.9373 36.5535 45.9509 36.3255 45.9217 36.1033C45.8925 35.8812 45.8243 35.6649 45.7152 35.4642C46.1809 35.1855 46.6232 34.7899 47.0325 34.293C47.4417 33.7961 47.8197 33.1978 48.1549 32.5158C47.508 32.4164 46.8415 32.2703 46.1634 32.0812C45.4852 31.8922 44.7954 31.6623 44.1016 31.3894C43.4079 31.6603 42.7181 31.8922 42.0399 32.0812C41.3618 32.2703 40.6953 32.4145 40.0484 32.5158C40.3855 33.1998 40.7635 33.798 41.1728 34.2949C41.582 34.7919 42.0243 35.1874 42.492 35.4661C42.3907 35.6532 42.3244 35.8578 42.2933 36.0663C42.2621 36.2748 42.2679 36.4911 42.3108 36.7035C41.4144 36.5768 40.5492 36.3586 39.7229 36.0565C38.8967 35.7545 38.1094 35.3706 37.3728 34.9127C38.1075 35.7077 38.8753 36.4268 39.6742 37.066C40.4732 37.7051 41.3033 38.2664 42.1646 38.7477C43.4742 39.4765 44.8577 40.0241 46.3037 40.3885C47.7515 40.7509 49.2618 40.9302 50.8246 40.9205C53.2994 40.9068 55.5638 40.4313 57.4014 39.8565C59.241 39.2836 60.6518 38.6132 61.4216 38.2098C61.4449 38.1962 61.6983 38.0559 61.6983 38.0559C62.7291 37.4616 63.5651 36.608 64.1419 35.6084C64.7207 34.6067 65.0403 33.4589 65.0403 32.2683V26.9952V21.7181H65.0461ZM65.0461 12.458L61.7996 14.3326L58.5531 16.2072C58.824 18.2066 58.7714 20.395 58.2569 22.7665C57.7425 25.1381 56.7642 27.6947 55.1858 30.4307H55.1838H55.1819C54.5875 31.4557 53.8568 32.3911 53.011 33.2095C52.1673 34.0299 51.2105 34.7334 50.166 35.2985C51.2202 35.0588 52.2257 34.7548 53.1786 34.3826C54.1315 34.0104 55.0318 33.572 55.8776 33.0673C57.1637 32.2995 58.329 31.3758 59.3677 30.304C60.4063 29.2322 61.3163 28.0124 62.09 26.6541C63.3157 24.5047 64.0348 22.3047 64.4576 20.4261C64.8805 18.5476 65.0052 16.9886 65.0422 16.1215C65.0442 16.0942 65.0461 16.0182 65.0481 16.0065V14.2332V12.458H65.0461Z" fill="white"/>
<path d="M2.77637 56.0147H3.7663L3.85399 56.533H3.88322C4.22814 56.2017 4.64126 55.9153 5.20053 55.9153C6.09108 55.9153 6.47108 56.5447 6.47108 57.5678V60.1128H5.25704V57.7237C5.25704 57.1332 5.0992 56.95 4.74844 56.95C4.44249 56.95 4.25737 57.0923 3.9904 57.3476V60.1128H2.77637V56.0147V56.0147Z" fill="white"/>
<path d="M7.50293 56.0147H8.49286L8.58055 56.533H8.60978C8.9547 56.2017 9.36782 55.9153 9.9271 55.9153C10.8176 55.9153 11.1976 56.5447 11.1976 57.5678V60.1128H9.98361V57.7237C9.98361 57.1332 9.82576 56.95 9.475 56.95C9.16906 56.95 8.98393 57.0923 8.71696 57.3476V60.1128H7.50293V56.0147V56.0147Z" fill="white"/>
<path d="M11.9893 58.0647C11.9893 56.7026 12.948 55.9153 13.9847 55.9153C15.0214 55.9153 15.9802 56.7026 15.9802 58.0647C15.9802 59.4249 15.0214 60.2121 13.9847 60.2121C12.948 60.2121 11.9893 59.4249 11.9893 58.0647ZM14.7369 58.0647C14.7369 57.3554 14.4875 56.8955 13.9847 56.8955C13.482 56.8955 13.2325 57.3554 13.2325 58.0647C13.2325 58.774 13.482 59.2319 13.9847 59.2319C14.4875 59.2319 14.7369 58.774 14.7369 58.0647Z" fill="white"/>
<path d="M16.3096 56.0151H17.5294L18.0634 57.9502C18.1686 58.3575 18.2758 58.7803 18.381 59.209H18.4141C18.5194 58.7803 18.6266 58.3575 18.7318 57.9502L19.2657 56.0151H20.4291L19.0923 60.1132H17.6931L16.3096 56.0151Z" fill="white"/>
<path d="M20.7124 58.9767C20.7124 58.1134 21.4003 57.6457 23.0196 57.4742C22.9963 57.1157 22.817 56.8818 22.3707 56.8818C22.0258 56.8818 21.6828 57.026 21.2853 57.2521L20.8527 56.4551C21.373 56.1374 21.9596 55.9153 22.6026 55.9153C23.651 55.9153 24.2298 56.5135 24.2298 57.7704V60.1128H23.2398L23.1522 59.6938H23.1229C22.778 59.9978 22.3922 60.2121 21.9303 60.2121C21.1879 60.2121 20.7124 59.6665 20.7124 58.9767ZM23.0216 58.9221V58.2069C22.1583 58.3239 21.8758 58.5694 21.8758 58.8792C21.8758 59.1443 22.057 59.2729 22.3454 59.2729C22.6221 59.2729 22.8053 59.1365 23.0216 58.9221Z" fill="white"/>
<path d="M24.894 59.6395L25.4397 58.8834C25.8119 59.164 26.1548 59.314 26.4978 59.314C26.8583 59.314 27.0162 59.1757 27.0162 58.9613C27.0162 58.6905 26.6108 58.5696 26.188 58.404C25.6852 58.2091 25.1025 57.8759 25.1025 57.1997C25.1025 56.4358 25.7222 55.9175 26.6693 55.9175C27.2968 55.9175 27.7645 56.1708 28.1133 56.4358L27.5696 57.1646C27.2773 56.9522 26.9908 56.8139 26.7063 56.8139C26.3926 56.8139 26.2386 56.9366 26.2386 57.1413C26.2386 57.4024 26.6225 57.5018 27.0473 57.6577C27.5657 57.8506 28.1522 58.1409 28.1522 58.8912C28.1522 59.6336 27.5676 60.2124 26.4686 60.2124C25.9268 60.2124 25.3091 59.9785 24.894 59.6395Z" fill="white"/>
<path d="M31.072 61.6332L31.2883 60.7076C31.3643 60.7271 31.4754 60.7602 31.5651 60.7602C31.9645 60.7602 32.177 60.54 32.2822 60.2224L32.3426 60.008L30.7622 56.0151H31.9821L32.5686 57.7787C32.6875 58.1509 32.7849 58.5387 32.8921 58.9401H32.9253C33.0168 58.5523 33.1084 58.1645 33.2098 57.7787L33.7067 56.0151H34.87L33.4475 60.158C33.0578 61.185 32.6213 61.717 31.6586 61.717C31.4014 61.715 31.2377 61.6819 31.072 61.6332Z" fill="white"/>
<path d="M35.144 58.9767C35.144 58.1134 35.8319 57.6457 37.4513 57.4742C37.4279 57.1157 37.2486 56.8818 36.8024 56.8818C36.4575 56.8818 36.1145 57.026 35.717 57.2521L35.2843 56.4551C35.8046 56.1374 36.3912 55.9153 37.0343 55.9153C38.0827 55.9153 38.6614 56.5135 38.6614 57.7704V60.1128H37.6715L37.5838 59.6938H37.5546C37.2096 59.9978 36.8238 60.2121 36.362 60.2121C35.6195 60.2121 35.144 59.6665 35.144 58.9767ZM37.4532 58.9221V58.2069C36.59 58.3239 36.3074 58.5694 36.3074 58.8792C36.3074 59.1443 36.4886 59.2729 36.777 59.2729C37.0538 59.2729 37.2369 59.1365 37.4532 58.9221Z" fill="white"/>
<path d="M40.9043 56.0151H42.1242L42.6581 57.9502C42.7633 58.3575 42.8705 58.7803 42.9758 59.209H43.0089C43.1141 58.7803 43.2213 58.3575 43.3265 57.9502L43.8605 56.0151H45.0238L43.687 60.1132H42.2879L40.9043 56.0151Z" fill="white"/>
<path d="M45.4258 58.2303C45.4258 58.0121 45.4531 57.7899 45.4764 57.6905H47.9279C47.8324 57.1098 47.4972 56.8409 46.9867 56.8409C46.671 56.8409 46.3767 56.9383 46.0883 57.1157L45.6869 56.3284C46.1293 56.0322 46.6807 55.9153 47.1932 55.9153C48.2748 55.9153 49.1049 56.7259 49.1049 58.0627C49.1049 59.3917 48.2105 60.2121 47.1854 60.2121C46.0221 60.2121 45.4258 59.3625 45.4258 58.2303ZM47.9415 58.4934H46.4625C46.4625 58.9611 46.671 59.2865 47.1582 59.2865C47.5576 59.2865 47.8616 59.0468 47.9415 58.4934Z" fill="white"/>
<path d="M55.9043 60.1127L54.6864 57.9594C55.2613 57.7003 55.6452 57.1975 55.6452 56.4044C55.6452 55.1241 54.7098 54.7285 53.5679 54.7285H51.6289V60.1127H52.8468V58.1757H53.5172L54.5441 60.1127H55.9043V60.1127ZM52.8449 55.6951H53.4685C54.1096 55.6951 54.4526 55.8724 54.4526 56.4044C54.4526 56.9344 54.1076 57.2072 53.4685 57.2072H52.8449V55.6951Z" fill="white"/>
<path d="M56.354 58.2303C56.354 58.0121 56.3813 57.7899 56.4047 57.6905H58.8561C58.7606 57.1098 58.4255 56.8409 57.9149 56.8409C57.5992 56.8409 57.305 56.9383 57.0166 57.1157L56.6151 56.3284C57.0575 56.0322 57.609 55.9153 58.1215 55.9153C59.203 55.9153 60.0331 56.7259 60.0331 58.0627C60.0331 59.3917 59.1387 60.2121 58.1137 60.2121C56.9484 60.2121 56.354 59.3625 56.354 58.2303ZM58.8698 58.4934H57.3907C57.3907 58.9611 57.5992 59.2865 58.0864 59.2865C58.4839 59.2865 58.7879 59.0468 58.8698 58.4934Z" fill="white"/>
<path d="M63.3191 60.3836L63.362 59.7581C63.0931 60.0231 62.7014 60.2121 62.3331 60.2121C61.3139 60.2121 60.6572 59.4034 60.6572 58.0647C60.6572 56.724 61.4932 55.9153 62.3565 55.9153C62.8008 55.9153 63.1262 56.0692 63.4516 56.418H63.4809L63.5822 56.0127H64.5312V61.6327H63.3172V60.3836H63.3191ZM63.3191 58.85V57.1663C63.1048 56.9734 62.8631 56.9072 62.641 56.9072C62.2473 56.9072 61.9024 57.2696 61.9024 58.0491C61.9024 58.8539 62.1811 59.2164 62.6507 59.2164C62.9099 59.2183 63.1184 59.1189 63.3191 58.85Z" fill="white"/>
<path d="M65.3682 58.2303C65.3682 58.0121 65.3954 57.7899 65.4188 57.6905H67.8703C67.7748 57.1098 67.4396 56.8409 66.9291 56.8409C66.6134 56.8409 66.3191 56.9383 66.0307 57.1157L65.6293 56.3284C66.0716 56.0322 66.6231 55.9153 67.1356 55.9153C68.2171 55.9153 69.0473 56.7259 69.0473 58.0627C69.0473 59.3917 68.1528 60.2121 67.1278 60.2121C65.9625 60.2121 65.3682 59.3625 65.3682 58.2303ZM67.8839 58.4934H66.4049C66.4049 58.9611 66.6134 59.2865 67.1005 59.2865C67.4981 59.2865 67.8021 59.0468 67.8839 58.4934Z" fill="white"/>
<path d="M69.8823 56.0147H70.8723L70.9599 56.5408H70.9892C71.3263 56.2017 71.6926 55.9153 72.2305 55.9153C72.8073 55.9153 73.1542 56.1647 73.3627 56.6051C73.7232 56.229 74.1071 55.9153 74.6488 55.9153C75.5335 55.9153 75.931 56.5447 75.931 57.5678V60.1128H74.717V57.7237C74.717 57.1332 74.5553 56.95 74.2104 56.95C74.0038 56.95 73.7719 57.0787 73.5127 57.3476V60.1128H72.2987V57.7237C72.2987 57.1332 72.1369 56.95 71.792 56.95C71.5894 56.95 71.3536 57.0787 71.0944 57.3476V60.1128H69.8804V56.0147H69.8823Z" fill="white"/>
<path d="M76.5991 59.6395L77.1448 58.8834C77.517 59.164 77.8599 59.314 78.2029 59.314C78.5634 59.314 78.7212 59.1757 78.7212 58.9613C78.7212 58.6905 78.3159 58.5696 77.8931 58.404C77.3903 58.2091 76.8076 57.8759 76.8076 57.1997C76.8076 56.4358 77.4273 55.9175 78.3744 55.9175C79.0019 55.9175 79.4695 56.1708 79.8184 56.4358L79.2747 57.1646C78.9824 56.9522 78.6959 56.8139 78.4114 56.8139C78.0977 56.8139 77.9437 56.9366 77.9437 57.1413C77.9437 57.4024 78.3276 57.5018 78.7524 57.6577C79.2708 57.8506 79.8573 58.1409 79.8573 58.8912C79.8573 59.6336 79.2727 60.2124 78.1737 60.2124C77.6319 60.2124 77.0142 59.9785 76.5991 59.6395Z" fill="white"/>
<path d="M80.4316 58.9767C80.4316 58.1134 81.1195 57.6457 82.7389 57.4742C82.7155 57.1157 82.5362 56.8818 82.09 56.8818C81.7451 56.8818 81.4021 57.026 81.0046 57.2521L80.5719 56.4551C81.0922 56.1374 81.6788 55.9153 82.3219 55.9153C83.3702 55.9153 83.949 56.5135 83.949 57.7704V60.1128H82.9591L82.8714 59.6938H82.8422C82.4972 59.9978 82.1095 60.2121 81.6496 60.2121C80.9071 60.2121 80.4316 59.6665 80.4316 58.9767ZM82.7408 58.9221V58.2069C81.8776 58.3239 81.595 58.5694 81.595 58.8792C81.595 59.1443 81.7762 59.2729 82.0646 59.2729C82.3394 59.2729 82.5245 59.1365 82.7408 58.9221Z" fill="white"/>
<path d="M84.9751 58.8386V54.3254H86.1891V58.8893C86.1891 59.1504 86.3099 59.2322 86.4093 59.2322C86.4561 59.2322 86.4892 59.2322 86.5574 59.2166L86.7016 60.113C86.5672 60.1696 86.3684 60.2144 86.0917 60.2144C85.2596 60.2124 84.9751 59.6687 84.9751 58.8386Z" fill="white"/>
<path d="M16.7329 65.9278H17.7228L17.8105 66.4461H17.8398C18.1847 66.1148 18.5978 65.8284 19.1571 65.8284C20.0476 65.8284 20.4276 66.4578 20.4276 67.4809V70.0258H19.2136V67.6368C19.2136 67.0463 19.0557 66.8631 18.705 66.8631C18.399 66.8631 18.2139 67.0054 17.9469 67.2607V70.0258H16.7329V65.9278V65.9278Z" fill="white"/>
<path d="M21.4565 64.2385H22.6433V67.5532H22.6725L23.9723 65.9261H25.2916L23.8554 67.6156L25.4007 70.0242H24.0853L23.1636 68.4263L22.6433 69.0167V70.0261H21.4565V64.2385V64.2385Z" fill="white"/>
<path d="M31.1591 68.804C31.1591 68.0538 30.5745 67.7634 30.0542 67.5705C29.6294 67.4165 29.2455 67.3152 29.2455 67.0541C29.2455 66.8495 29.3994 66.7267 29.7132 66.7267C29.9977 66.7267 30.2841 66.8651 30.5764 67.0755L31.1201 66.3467C30.7713 66.0817 30.3036 65.8284 29.6761 65.8284C28.731 65.8284 28.1094 66.3487 28.1094 67.1106C28.1094 67.7888 28.692 68.122 29.1948 68.3149C29.6157 68.4805 30.023 68.6033 30.023 68.8722C30.023 69.0866 29.8671 69.2249 29.5046 69.2249C29.1617 69.2249 28.8187 69.0749 28.4465 68.7943L27.9009 69.5504C28.2731 69.8544 28.807 70.0726 29.3039 70.1155L28.9649 70.7995C29.4657 70.8657 29.5962 70.9807 29.5962 71.1483C29.5962 71.3821 29.3955 71.4776 28.7505 71.5127L28.8401 71.9999C29.869 71.9648 30.4712 71.7076 30.4712 71.1463C30.4712 70.8014 30.2529 70.626 29.8379 70.5305L30.0405 70.0668C30.7752 69.8992 31.1591 69.4042 31.1591 68.804Z" fill="white"/>
<path d="M31.7358 68.8898C31.7358 68.0265 32.4237 67.5588 34.0431 67.3873C34.0197 67.0288 33.8404 66.7949 33.3942 66.7949C33.0493 66.7949 32.7063 66.9391 32.3088 67.1652L31.8761 66.3682C32.3964 66.0505 32.983 65.8284 33.6261 65.8284C34.6745 65.8284 35.2532 66.4266 35.2532 67.6835V70.0258H34.2633L34.1756 69.6069H34.1464C33.8014 69.9109 33.4156 70.1252 32.9538 70.1252C32.2094 70.1252 31.7358 69.5796 31.7358 68.8898ZM34.0431 68.8352V68.12C33.1798 68.2369 32.8973 68.4825 32.8973 68.7923C32.8973 69.0573 33.0785 69.186 33.3669 69.186C33.6436 69.186 33.8287 69.0496 34.0431 68.8352Z" fill="white"/>
<path d="M38.1697 65.0918C38.3042 65.0918 38.4562 65.1249 38.5945 65.1795L38.8128 64.2831C38.6316 64.2149 38.3373 64.137 37.9943 64.137C36.8875 64.137 36.4861 64.8482 36.4861 65.7134V65.9317L35.9404 65.9726V66.8788H36.4861V70.0259H37.7001V66.8807H38.4367V65.9278H37.7001V65.6803C37.702 65.2555 37.8735 65.0918 38.1697 65.0918Z" fill="white"/>
<path d="M45.6052 70.0258H46.8933L45.2018 64.6416H43.7462L42.0547 70.0258H43.2999L43.6331 68.7436H45.2739L45.6052 70.0258ZM43.8767 67.7965L44.0053 67.2977C44.1554 66.7598 44.2996 66.1304 44.4282 65.5614H44.4613C44.6055 66.1226 44.7497 66.7598 44.8978 67.2977L45.0264 67.7965H43.8767Z" fill="white"/>
<path d="M51.5903 67.9778C51.5903 66.6488 52.5393 65.8284 53.5234 65.8284C54.6907 65.8284 55.2695 66.676 55.2695 67.7946C55.2695 68.0128 55.2422 68.233 55.2188 68.3305H52.7673C52.8765 68.9248 53.2837 69.1976 53.8294 69.1976C54.1392 69.1976 54.4179 69.1041 54.716 68.9287L55.1174 69.6614C54.6985 69.9518 54.149 70.1233 53.6637 70.1233C52.4965 70.1252 51.5903 69.3341 51.5903 67.9778ZM54.2328 67.5296C54.2328 67.0794 54.0359 66.754 53.5507 66.754C53.1668 66.754 52.8355 67.0112 52.7537 67.5296H54.2328Z" fill="white"/>
<path d="M56.106 65.9278H57.0959L57.1836 66.4461H57.2128C57.5577 66.1148 57.9709 65.8284 58.5301 65.8284C59.4207 65.8284 59.8007 66.4578 59.8007 67.4809V70.0258H58.5866V67.6368C58.5866 67.0463 58.4288 66.8631 58.078 66.8631C57.7721 66.8631 57.587 67.0054 57.32 67.2607V70.0258H56.106V65.9278V65.9278Z" fill="white"/>
<path d="M60.9948 68.535V66.8787H60.4355V65.9725L61.063 65.9257L61.2053 64.8364H62.2089V65.9257H63.191V66.8787H62.2089V68.5194C62.2089 68.9832 62.4193 69.1703 62.7389 69.1703C62.8733 69.1703 63.0214 69.1313 63.1286 69.0924L63.3196 69.9751C63.1014 70.0433 62.8071 70.1232 62.4096 70.1232C61.3982 70.1252 60.9948 69.486 60.9948 68.535Z" fill="white"/>
<path d="M63.9956 68.7517V64.2385H65.2096V68.8024C65.2096 69.0635 65.3305 69.1453 65.4298 69.1453C65.4766 69.1453 65.5097 69.1453 65.5779 69.1297L65.7221 70.0261C65.5877 70.0826 65.3889 70.1275 65.1122 70.1275C64.2801 70.1255 63.9956 69.5818 63.9956 68.7517Z" fill="white"/>
<path d="M68.5159 71.5458L68.7322 70.6202C68.8082 70.6397 68.9193 70.6728 69.0089 70.6728C69.4084 70.6728 69.6208 70.4526 69.726 70.1349L69.7864 69.9206L68.2061 65.9277H69.4259L70.0125 67.6913C70.1313 68.0635 70.2288 68.4513 70.336 68.8527H70.3691C70.4607 68.4649 70.5523 68.0771 70.6536 67.6913L71.1505 65.9277H72.3139L70.8913 70.0706C70.5016 71.0976 70.0651 71.6296 69.1024 71.6296C68.8452 71.6276 68.6815 71.5945 68.5159 71.5458Z" fill="white"/>
<path d="M51.1404 69.3245C51.1404 70.6106 50.2557 71.2303 48.9189 71.2303C48.2797 71.2303 47.8043 71.0783 47.4515 70.9068L47.775 70.0942C48.0693 70.252 48.4356 70.3884 48.8897 70.3884C49.5074 70.3884 49.9459 70.1156 49.9459 69.3673V69.1452H49.9322C49.6808 69.4901 49.2911 69.7123 48.7825 69.7123C47.8198 69.7123 47.1865 68.9289 47.1865 67.8435C47.1865 66.7658 47.8335 65.8948 48.8254 65.8948C49.3437 65.8948 49.7607 66.1325 50.0472 66.5359H50.0608L50.0901 65.9747H51.1404V69.3245V69.3245ZM49.9887 67.8064C49.9887 67.1887 49.7023 66.7561 49.1898 66.7561C48.6656 66.7561 48.3908 67.2238 48.3908 67.8201C48.3908 68.4027 48.65 68.8704 49.182 68.8704C49.7023 68.8704 49.9887 68.4261 49.9887 67.8064Z" fill="white"/>
<path d="M0.391596 54.7287H1.60953V60.1129H0.391596V54.7287ZM0.389648 53.3198H1.61147V54.3273H0.389648V53.3198Z" fill="white"/>
<path d="M14.3486 64.6418H15.5666V70.026H14.3486V64.6418ZM14.3447 63.2349H15.5666V64.2423H14.3447V63.2349Z" fill="white"/>
<path d="M28.9141 56.0151H30.1281V60.1132H28.9141V56.0151ZM28.9121 54.2769H30.1339V55.2843H28.9121V54.2769Z" fill="white"/>
<path d="M25.9868 65.9277H27.2008V70.0258H25.9868V65.9277ZM25.9849 64.1895H27.2067V65.1969H25.9849V64.1895Z" fill="white"/>
<path d="M66.3594 65.9277H67.5734V70.0258H66.3594V65.9277ZM66.3574 64.1895H67.5793V65.1969H66.3574V64.1895Z" fill="white"/>
<path d="M72.9448 65.9277H74.1588V70.0258H72.9448V65.9277ZM72.9429 64.1895H74.1647V65.1969H72.9429V64.1895Z" fill="white"/>
</svg>
