<svg width="40" height="40" viewBox="0 0 40 40" fill="none" xmlns="http://www.w3.org/2000/svg">
<path fill-rule="evenodd" clip-rule="evenodd" d="M37.5505 2.44961C38.0386 2.93777 38.0386 3.72922 37.5505 4.21738L19.2171 22.5507C18.729 23.0389 17.9375 23.0389 17.4494 22.5507C16.9612 22.0626 16.9612 21.2711 17.4494 20.7829L35.7827 2.44961C36.2709 1.96146 37.0623 1.96146 37.5505 2.44961Z" fill="#817BCB"/>
<path fill-rule="evenodd" clip-rule="evenodd" d="M37.5505 2.44965C37.89 2.78919 38.005 3.29324 37.8464 3.74647L26.1797 37.0798C26.0104 37.5636 25.563 37.8949 25.0509 37.9158C24.5388 37.9367 24.0658 37.6429 23.8577 37.1745L17.3863 22.6139L2.82559 16.1425C2.35723 15.9343 2.06341 15.4613 2.0843 14.9492C2.10519 14.4371 2.43657 13.9897 2.92032 13.8204L36.2537 2.15371C36.7069 1.99508 37.2109 2.1101 37.5505 2.44965ZM6.7221 15.1385L18.8409 20.5246C19.1237 20.6503 19.3498 20.8764 19.4755 21.1592L24.8617 33.278L34.6291 5.37099L6.7221 15.1385Z" fill="#817BCB"/>
</svg>
