<svg width="113" height="22" viewBox="0 0 113 22" fill="none" xmlns="http://www.w3.org/2000/svg">
<path d="M42.5288 0H46.0161V8.57096L46.5248 8.19629C48.2913 6.88219 50.2548 6.59815 52.3029 7.29775C54.4545 8.03162 55.6076 9.69497 55.7045 11.8811C55.8369 14.853 55.7379 17.836 55.7379 20.8499H52.2428C52.2428 20.6643 52.2428 20.4708 52.2428 20.2763C52.2338 17.8658 52.2483 15.4554 52.206 13.046C52.1782 11.4766 51.2822 10.4432 49.8607 10.2089C48.3903 9.96685 46.9611 10.704 46.5103 12.1231C46.2221 13.0866 46.0637 14.0837 46.0395 15.0884C45.9683 16.9971 46.0183 18.9103 46.0183 20.8532H42.5288V0Z" fill="#151447"/>
<path d="M86.0683 17.2638C84.7267 20.383 81.467 21.968 77.9642 21.2429C75.0884 20.6472 73.0883 18.5581 72.5289 15.5671C71.947 12.459 73.3798 9.34864 76.0564 7.9051C77.0735 7.35137 78.2153 7.0558 79.3781 7.04522C80.541 7.03463 81.6882 7.30936 82.7155 7.84448C83.7429 8.3796 84.6179 9.15817 85.2612 10.1095C85.9045 11.0609 86.2957 12.155 86.3993 13.2924C86.4555 13.8893 86.46 14.4906 86.4904 15.1427H76.044C76.044 16.8515 77.6536 18.3758 79.4601 18.4001C80.8108 18.4178 81.96 18.0243 82.749 16.8593C82.8323 16.7344 83.125 16.6625 83.2972 16.6946C84.2145 16.8582 85.124 17.0648 86.0683 17.2638ZM82.7321 12.6701C82.4721 11.0121 80.9695 9.98088 79.0774 10.1456C77.5422 10.2793 76.1273 11.64 76.187 12.6701H82.7321Z" fill="#151447"/>
<path d="M25.8192 17.2676C25.1376 18.845 24.0754 20.0147 22.5142 20.7349C19.1307 22.2935 15.1109 21.1027 13.3395 17.9525C11.2738 14.2786 12.555 8.99434 17.003 7.4413C18.0161 7.08182 19.0995 6.96455 20.1662 7.0989C21.2329 7.23325 22.2532 7.61548 23.1451 8.21488C24.037 8.81429 24.7757 9.61416 25.3018 10.5502C25.8279 11.4863 26.1268 12.5325 26.1744 13.6049C26.2009 14.0986 26.1744 14.599 26.1744 15.138H15.9662C15.8987 16.8799 17.6613 18.4661 19.5246 18.3943C20.7671 18.3468 21.8205 17.9525 22.5474 16.8656C22.637 16.7308 22.9535 16.6568 23.1394 16.691C24.0212 16.8534 24.8953 17.0633 25.8192 17.2676ZM16.0437 12.6538H22.5264C22.4014 11.3681 21.1002 10.2016 19.7392 10.1453C17.8361 10.0625 16.3601 11.0566 16.0437 12.6538Z" fill="#151447"/>
<path d="M57.4653 7.51171H60.9677V8.69627C61.8852 7.87355 63.0253 7.33072 64.2498 7.13365C67.6132 6.56493 70.557 8.78832 70.6639 12.1349C70.7551 15.0289 70.6828 17.9274 70.6828 20.8532H67.1626C67.1626 20.6669 67.1626 20.4751 67.1626 20.2833C67.1626 17.8934 67.1848 15.5034 67.1425 13.1135C67.1214 11.9081 66.6074 10.9219 65.3891 10.4463C64.3188 10.0255 62.8758 10.3246 62.0981 11.1323C61.3204 11.9399 61.0478 12.9349 61.0167 13.9814C60.9555 16.0634 60.9666 18.1388 60.9488 20.2176C60.9488 20.417 60.9488 20.6165 60.9488 20.8466H57.4664L57.4653 7.51171Z" fill="#151447"/>
<path d="M87.6177 17.4584L91.1537 16.7589C91.3785 17.864 92.1125 18.3967 93.1151 18.5006C93.8177 18.5695 94.5269 18.5322 95.218 18.3901C95.5073 18.3362 95.7678 18.1832 95.9531 17.9581C96.1383 17.733 96.2363 17.4506 96.2296 17.1612C96.1914 16.5246 95.7373 16.2184 95.1922 16.0803C94.2188 15.8327 93.2297 15.6382 92.2451 15.4371C91.0087 15.184 89.8061 14.8315 88.9192 13.881C87.5536 12.4178 87.7402 9.92893 89.2913 8.5121C91.6775 6.33382 96.5319 6.62226 98.5832 9.10337C99.0159 9.62611 99.2778 10.2848 99.6791 10.9822L96.2082 11.6806C96.1032 11.4152 95.9808 11.1568 95.8418 10.907C95.1798 9.86151 93.1746 9.45481 92.1327 10.1444C91.9421 10.2639 91.7888 10.4328 91.6897 10.6325C91.5905 10.8322 91.5493 11.0549 91.5707 11.2761C91.6011 11.8044 91.9371 12.1315 92.4227 12.2509C93.5984 12.5371 94.783 12.7814 95.9666 13.0422C97.2176 13.3185 98.3696 13.7771 99.107 14.8768C100.343 16.729 99.6926 19.2886 97.6986 20.4921C95.4215 21.867 91.247 21.6824 89.1148 20.1131C88.2516 19.4776 87.6626 18.4619 87.6177 17.4584Z" fill="#151447"/>
<path d="M37.8341 12.9435C37.7836 12.8161 37.7485 12.733 37.7178 12.6488C37.0171 10.7658 35.7012 10.017 33.6735 10.3382C32.0286 10.5985 30.796 12.0418 30.7072 13.8086C30.6447 15.0658 30.841 16.2311 31.7895 17.1516C32.2175 17.5724 32.7398 17.8826 33.3119 18.0558C33.8841 18.2289 34.4892 18.2598 35.0757 18.1459C35.6623 18.0321 36.2129 17.7767 36.6807 17.4017C37.1486 17.0266 37.5198 16.543 37.7628 15.9918C37.8209 15.8589 37.8724 15.7249 37.9492 15.5543C38.4866 15.6861 39.0118 15.8091 39.5349 15.9442C40.058 16.0794 40.5822 16.2278 41.1031 16.3707C40.5548 19.4246 37.3845 21.62 33.883 21.4018C30.3442 21.1803 27.4996 18.3003 27.3241 14.7612C27.1322 10.8909 29.5481 7.74176 33.1647 7.14803C36.7978 6.55209 40.1753 8.58803 41.1217 11.9964L37.8341 12.9435Z" fill="#151447"/>
<path d="M111.478 17.603C111.799 18.5243 112.106 19.4069 112.411 20.2895C112.417 20.3261 112.417 20.3635 112.411 20.4001C110.444 21.7826 107.177 21.7539 105.412 20.3205C104.125 19.2764 103.767 17.8264 103.734 16.279C103.695 14.5857 103.724 12.8913 103.723 11.1968V10.51H100.862V7.68299H103.725V3.09961H107.217V7.66197H111.62V10.4746H107.24C107.24 11.7167 107.24 12.8902 107.24 14.0626C107.24 14.7074 107.232 15.3522 107.252 15.9959C107.308 17.7224 108.323 18.4856 110.033 18.0741C110.514 17.958 110.977 17.7689 111.478 17.603Z" fill="#151447"/>
<path d="M10.8603 17.5284C11.1788 18.4733 11.4966 19.4148 11.8136 20.3529C9.65988 21.9466 6.06084 21.7177 4.38488 19.8827C3.67873 19.116 3.26409 18.1187 3.21522 17.0694C3.12955 15.4746 3.13944 13.8742 3.11527 12.276C3.10539 11.626 3.11527 10.976 3.11527 10.2657H0.259766V7.3497H3.07134C3.18117 6.74549 2.9703 6.08545 3.57655 5.6175C4.06308 5.24225 4.4354 4.7151 4.88349 4.22705C5.43263 4.83907 6.0224 5.3852 6.4661 6.03072C6.67478 6.33562 6.61108 6.83484 6.67917 7.30949H10.9778V10.2423H6.66819C6.66819 12.2995 6.58691 14.3064 6.69564 16.3022C6.77142 17.6882 7.78623 18.3314 9.1393 18.0455C9.70601 17.9249 10.254 17.7138 10.8603 17.5284Z" fill="#151447"/>
<path d="M3.07812 4.79061V0H6.74153V4.73569C6.26309 4.25564 5.84679 3.84589 5.4387 3.42956C4.9626 2.94291 4.87934 2.93632 4.38917 3.42956C3.9717 3.85688 3.56478 4.2853 3.07812 4.79061Z" fill="#3265F1"/>
</svg>
